<svg width="22" height="22" viewBox="0 0 22 22" fill="none" xmlns="http://www.w3.org/2000/svg">
<path d="M11 1.7692C5.902 1.7692 1.7692 5.9019 1.7692 10.9999C1.7692 16.098 5.902 20.2307 11 20.2307C16.098 20.2307 20.2308 16.098 20.2308 10.9999C20.2308 5.9019 16.098 1.7692 11 1.7692Z" stroke="currentColor" stroke-width="2" stroke-miterlimit="10"/>
<path d="M11 14.0769C10.4477 14.0769 10 14.5246 10 15.0769C10 15.6292 10.4477 16.0769 11 16.0769C11.5523 16.0769 12 15.6292 12 15.0769C12 14.5246 11.5523 14.0769 11 14.0769Z" fill="currentColor"/>
<path d="M11 5.8461C11.6154 5.8461 12.0769 6.3077 12.0769 6.8461V12.0769C12.0769 12.6154 11.6154 13.0769 11.0769 13.0769H11C10.4616 13.0769 9.99997 12.6154 9.99997 12.0769V6.8461C9.99997 6.3077 10.3846 5.8461 11 5.8461Z" fill="currentColor" />
</svg>
