<svg width="30" height="30" viewBox="0 0 30 30" fill="none" xmlns="http://www.w3.org/2000/svg">
<path d="M14.7307 27.4615C21.7617 27.4615 27.4615 21.7618 27.4615 14.7308C27.4615 7.69975 21.7617 2 14.7307 2C7.69969 2 1.99994 7.69975 1.99994 14.7308C1.99994 21.7618 7.69969 27.4615 14.7307 27.4615Z" stroke="currentColor  " stroke-width="2" stroke-miterlimit="10"/>
<path d="M14.7307 10.4871C15.4924 10.4871 16.1099 9.86968 16.1099 9.10798C16.1099 8.34629 15.4924 7.7288 14.7307 7.7288C13.969 7.7288 13.3515 8.34629 13.3515 9.10798C13.3515 9.86968 13.969 10.4871 14.7307 10.4871Z" fill="currentColor"/>
<path d="M14.7306 21.8388C13.8819 21.8388 13.2454 21.2022 13.2454 20.4596V13.2455C13.2454 12.5028 13.8819 11.8663 14.6246 11.8663H14.7306C15.4732 11.8663 16.1098 12.5028 16.1098 13.2455V20.4596C16.1098 21.2022 15.5794 21.8388 14.7306 21.8388Z" fill="currentColor"/>
</svg>
