<svg width="101" height="81" viewBox="0 0 101 81" fill="none" xmlns="http://www.w3.org/2000/svg">
<path d="M22.8035 23.9176L4.06592 36.4518L22.5223 64.0425L41.2598 51.5083L22.8035 23.9176Z" fill="#DBEAFF"/>
<path d="M31.5767 50.2032L31.3646 51.5192L22.0493 50.1765L22.2614 48.8605L31.5767 50.2032Z" fill="#99BFF3"/>
<path d="M26.8858 45.5088L28.2218 45.7009L26.7405 54.8725L25.4028 54.6788L26.8858 45.5088Z" fill="#99BFF3"/>
<path d="M18.3137 33.8523C18.327 33.8706 16.4499 35.1515 14.1203 36.708C11.7906 38.2644 9.89185 39.5136 9.87849 39.4935C9.86513 39.4735 11.7422 38.1943 14.0719 36.6361C16.4015 35.078 18.2919 33.8322 18.3137 33.8523Z" fill="#99BFF3"/>
<path d="M25.1977 32.1221C25.211 32.1422 22.0881 34.2531 18.2238 36.8382C14.3594 39.4234 11.2098 41.5025 11.1997 41.4842C11.1897 41.4658 14.3059 39.3516 18.1753 36.7664C22.0447 34.1812 25.1843 32.1021 25.1977 32.1221Z" fill="#99BFF3"/>
<path d="M26.5785 34.1863C26.5919 34.2063 23.469 36.3188 19.6046 38.904C15.7402 41.4892 12.5906 43.5683 12.5806 43.5483C12.5706 43.5282 15.6901 41.4174 19.5562 38.8305C23.4222 36.2437 26.5652 34.1662 26.5785 34.1863Z" fill="#99BFF3"/>
<path d="M27.9596 36.252C27.973 36.2721 24.8501 38.3846 20.9857 40.9681C17.1213 43.5516 13.9717 45.6341 13.9717 45.6141C13.9717 45.594 17.0795 43.4815 20.9456 40.8963C24.8117 38.3112 27.9462 36.232 27.9596 36.252Z" fill="#99BFF3"/>
<path d="M29.3356 38.3178C29.349 38.3379 26.2261 40.4487 22.3617 43.0339C18.4973 45.6191 15.3477 47.6982 15.3394 47.6782C15.331 47.6581 18.4523 45.5473 22.3216 42.9621C26.191 40.3769 29.3356 38.2978 29.3356 38.3178Z" fill="#99BFF3"/>
<path d="M85.4592 42.4051L69.7227 52.9319L85.2226 76.1029L100.959 65.5761L85.4592 42.4051Z" fill="#DBEAFF"/>
<path d="M92.8293 64.485L92.6506 65.5906L84.8267 64.4633L85.007 63.3578L92.8293 64.485Z" fill="#99BFF3"/>
<path d="M88.8894 60.5422L90.0116 60.7042L88.7675 68.4062L87.6436 68.2442L88.8894 60.5422Z" fill="#99BFF3"/>
<path d="M81.6835 50.761C81.6969 50.781 80.1221 51.8582 78.1649 53.1658C76.2076 54.4734 74.6111 55.5188 74.5977 55.5038C74.5844 55.4888 76.1609 54.4083 78.1164 53.099C80.072 51.7897 81.6702 50.7326 81.6835 50.761Z" fill="#99BFF3"/>
<path d="M87.4705 49.2997C87.4838 49.3198 84.8636 51.0967 81.6255 53.266C78.3873 55.4353 75.737 57.1821 75.7237 57.1621C75.7103 57.1421 78.3306 55.3652 81.5687 53.1942C84.8068 51.0232 87.4521 49.2797 87.4705 49.2997Z" fill="#99BFF3"/>
<path d="M88.6311 51.0332C88.6445 51.0532 86.0242 52.8301 82.7861 55.0011C79.548 57.1721 76.8977 58.9156 76.8843 58.8956C76.871 58.8755 79.4828 57.107 82.7293 54.936C85.9758 52.765 88.6211 51.0148 88.6311 51.0332Z" fill="#99BFF3"/>
<path d="M89.7898 52.765C89.8032 52.785 87.1813 54.5619 83.9448 56.7329C80.7083 58.9039 78.0564 60.6474 78.043 60.6274C78.0297 60.6073 80.6499 58.8321 83.888 56.6594C87.1262 54.4868 89.7781 52.7483 89.7898 52.765Z" fill="#99BFF3"/>
<path d="M90.9588 54.5035C90.9721 54.5235 88.3519 56.2987 85.1137 58.4697C81.8756 60.6407 79.2253 62.3842 79.212 62.3658C79.1986 62.3475 81.8188 60.5689 85.057 58.3979C88.2951 56.2269 90.937 54.4834 90.9588 54.5035Z" fill="#99BFF3"/>
<path d="M60.5631 24.9327L43.3926 15.749L29.87 41.0322L47.0405 50.2158L60.5631 24.9327Z" fill="#DBEAFF"/>
<path d="M44.1019 42.3058L43.0131 42.6782L40.2476 35.0346L41.3381 34.6605L44.1019 42.3058Z" fill="#99BFF3"/>
<path d="M45.772 36.8215L46.1695 37.9187L38.5776 40.5189L38.1802 39.4217L45.772 36.8215Z" fill="#99BFF3"/>
<path d="M51.1661 25.544C51.1527 25.569 49.4126 24.6639 47.2766 23.5233C45.1407 22.3827 43.4223 21.4358 43.4356 21.4107C43.449 21.3857 45.1908 22.2908 47.3267 23.4314C49.4627 24.572 51.1794 25.5173 51.1661 25.544Z" fill="#99BFF3"/>
<path d="M55.2876 30.0914C55.2742 30.1164 52.3918 28.6001 48.8497 26.7063C45.3076 24.8125 42.4486 23.2561 42.462 23.231C42.4753 23.206 45.3561 24.7207 48.8981 26.6161C52.4402 28.5116 55.3009 30.0663 55.2876 30.0914Z" fill="#99BFF3"/>
<path d="M54.2754 31.9835C54.262 32.0086 51.3796 30.4939 47.8375 28.5984C44.2954 26.703 41.4364 25.1482 41.4498 25.1232C41.4631 25.0981 44.3439 26.6145 47.8859 28.5083C51.428 30.402 54.2887 31.9585 54.2754 31.9835Z" fill="#99BFF3"/>
<path d="M53.2636 33.8756C53.2503 33.9007 50.3679 32.386 46.8258 30.4922C43.2837 28.5984 40.4247 27.047 40.438 27.0169C40.4514 26.9869 43.3321 28.5066 46.8742 30.4004C50.4163 32.2941 53.277 33.8506 53.2636 33.8756Z" fill="#99BFF3"/>
<path d="M52.2514 35.7677C52.2381 35.7928 49.3557 34.2781 45.8136 32.3843C42.2715 30.4905 39.4108 28.9341 39.4258 28.9091C39.4409 28.884 42.3199 30.3987 45.862 32.2925C49.4041 34.1863 52.2648 35.7427 52.2514 35.7677Z" fill="#99BFF3"/>
<path opacity="0.2" d="M52.34 3.50001H51.9092V10.8447H52.34V3.50001Z" fill="black"/>
<path d="M42.0664 19.7307H62.1832C62.1832 19.7307 60.3262 10.848 51.9728 10.848C44.543 10.848 42.0664 19.7307 42.0664 19.7307Z" fill="#1890FF"/>
<path d="M52.3405 3.50001H51.9097V10.8447H52.3405V3.50001Z" fill="#1890FF"/>
<path d="M96.9158 76.9516C96.9158 76.975 75.331 76.995 48.7096 76.995C22.0881 76.995 0.5 76.98 0.5 76.9516C0.5 76.9232 22.0814 76.9082 48.7096 76.9082C75.3377 76.9082 96.9158 76.9266 96.9158 76.9516Z" fill="#676767"/>
<path d="M5.83732 66.4924C6.11966 66.5128 6.39501 66.5898 6.64693 66.7189C6.89885 66.848 7.12217 67.0266 7.30358 67.2439C7.66427 67.6811 7.91967 68.1953 8.05007 68.7469C8.3323 69.8023 8.15862 71.0498 7.85802 72.1003C6.71574 71.6911 6.00933 70.472 5.68702 69.8307C5.18602 68.8187 4.88709 66.6811 5.83231 66.4907" fill="#1890FF"/>
<path d="M9.503 73.3811C9.33147 73.1151 9.23339 72.8085 9.21872 72.4923C9.20406 72.1761 9.27333 71.8616 9.4195 71.5809C9.57025 71.3028 9.7749 71.0575 10.0215 70.8594C10.2681 70.6613 10.5517 70.5142 10.8557 70.4269C11.1346 70.3401 11.4586 70.305 11.7007 70.467C11.8099 70.5496 11.8949 70.6599 11.9469 70.7865C11.9989 70.9131 12.0159 71.0513 11.9963 71.1868C11.9525 71.4581 11.8372 71.7129 11.6623 71.9249C11.1062 72.6781 10.4315 73.3043 9.49131 73.3811" fill="#1890FF"/>
<path d="M9.62981 76.9099C9.60502 76.8389 9.58768 76.7656 9.57804 76.6911C9.54798 76.5341 9.5079 76.3321 9.45947 76.0899C9.30956 75.4269 9.26783 74.7439 9.33589 74.0675C9.41463 73.3879 9.67349 72.7416 10.0857 72.1955C10.2117 72.0322 10.3569 71.8847 10.5182 71.7563C10.5621 71.7215 10.6078 71.6892 10.6552 71.6594C10.6703 71.6469 10.6872 71.6367 10.7053 71.6293C10.494 71.8098 10.3011 72.0106 10.1291 72.2289C9.73865 72.7755 9.49277 73.412 9.41438 74.0792C9.3075 74.8575 9.43943 75.5705 9.51625 76.0832C9.55633 76.3387 9.58973 76.5458 9.6081 76.6894C9.62125 76.7622 9.62851 76.8359 9.62981 76.9099Z" fill="#676767"/>
<path d="M6.20459 68.1006C6.22366 68.1269 6.23937 68.1555 6.25135 68.1858C6.28141 68.2526 6.32149 68.3361 6.36825 68.4413C6.47012 68.6634 6.61207 68.9857 6.78408 69.3848C7.1281 70.1848 7.58902 71.297 8.06998 72.5361C8.55094 73.7753 8.96009 74.9059 9.23898 75.7292C9.3826 76.14 9.49449 76.474 9.57298 76.7061C9.60805 76.8163 9.63477 76.9048 9.65648 76.9733C9.6684 77.004 9.6768 77.0359 9.68153 77.0685C9.66459 77.0402 9.65114 77.0099 9.64145 76.9783C9.6164 76.9115 9.58467 76.8247 9.54292 76.7161L9.19055 75.7475C8.89162 74.9309 8.47412 73.802 7.99483 72.5645C7.51554 71.327 7.0613 70.2115 6.73064 69.4065C6.56364 69.0108 6.43505 68.6884 6.33986 68.453C6.29644 68.3461 6.26137 68.2609 6.23465 68.1925C6.2221 68.1627 6.21205 68.132 6.20459 68.1006Z" fill="#676767"/>
<path d="M8.27195 74.5752C7.92832 74.0031 7.45346 73.521 6.88662 73.1687C6.31977 72.8165 5.67723 72.6042 5.01211 72.5495C4.67811 72.5261 4.26729 72.5829 4.11699 72.8835C3.96669 73.1841 4.16709 73.5515 4.39755 73.7953C4.8872 74.3075 5.51754 74.6634 6.20911 74.8179C6.90068 74.9724 7.62252 74.9188 8.28364 74.6637" fill="#1890FF"/>
<path d="M5.52637 73.4547C5.59718 73.4511 5.66815 73.4539 5.73846 73.463C5.8208 73.4675 5.90278 73.4769 5.98395 73.4914C6.07914 73.5098 6.19103 73.5198 6.30793 73.5532C6.4386 73.5808 6.56744 73.6165 6.6937 73.6601C6.83999 73.7071 6.98331 73.7628 7.12289 73.8271C7.44394 73.9709 7.74761 74.1507 8.02803 74.3631C8.30522 74.5806 8.55628 74.8294 8.77619 75.1046C8.87116 75.2244 8.95872 75.3499 9.03839 75.4804C9.11039 75.593 9.17618 75.7095 9.23544 75.8294C9.28562 75.927 9.33022 76.0274 9.36904 76.13C9.40253 76.206 9.43098 76.2841 9.45421 76.3638C9.47895 76.4304 9.4974 76.4992 9.50932 76.5692C9.49095 76.5692 9.41079 76.282 9.18534 75.8545C9.12395 75.7396 9.0565 75.6281 8.98328 75.5205C8.90189 75.3939 8.81381 75.2719 8.71941 75.1547C8.28261 74.615 7.72557 74.1849 7.09283 73.8989C6.94754 73.8354 6.80893 73.7753 6.67366 73.7319C6.54948 73.6866 6.42293 73.6482 6.29457 73.6167C5.82697 73.4881 5.5247 73.473 5.52637 73.4547Z" fill="#676767"/>
<path d="M40.1053 42.6682L34.1935 73.0288L33.4253 77.0034L72.8373 76.813C74.6075 76.8046 76.1773 75.2332 76.7434 72.8985L83.734 44.2363C84.1666 42.4644 83.218 40.6207 81.8753 40.6224L41.9757 40.6642C41.1073 40.6625 40.3291 41.4841 40.1053 42.6682Z" fill="#1890FF"/>
<g opacity="0.5">
<path d="M40.1053 42.6682L34.1935 73.0288L33.4253 77.0034L72.8373 76.813C74.6075 76.8046 76.1773 75.2332 76.7434 72.8985L83.734 44.2363C84.1666 42.4644 83.218 40.6207 81.8753 40.6224L41.9757 40.6642C41.1073 40.6625 40.3291 41.4841 40.1053 42.6682Z" fill="black"/>
</g>
<path d="M69.0612 70.968L64.8862 37.3325C64.7192 35.9548 63.6187 34.926 62.3211 34.931L53.1695 34.9594C52.8294 34.9633 52.4937 35.0363 52.1827 35.1741C51.8718 35.3119 51.5922 35.5116 51.3609 35.761L47.0189 40.3819L21.5681 40.5189C20.0133 40.5272 18.8176 42.0002 19.023 43.6535L22.8991 74.7405C23.0661 76.1166 24.1666 77.1436 25.4609 77.142L69.8244 77.0535C74.7643 77.1553 75.2369 75.6974 75.2369 75.6974C69.5656 76.9516 69.0612 70.9763 69.0612 70.968Z" fill="#1890FF"/>
<g opacity="0.5">
<path d="M49.9314 64.2412L48.4351 65.8478L36.9121 55.4804L38.4084 53.8739L49.9314 64.2412Z" fill="white"/>
<path d="M47.8088 53.5181L49.4621 55.0061L39.0363 66.2035L37.3813 64.7155L47.8088 53.5181Z" fill="white"/>
</g>
</svg>
