<svg width="4" height="16" viewBox="0 0 4 16" fill="none" xmlns="http://www.w3.org/2000/svg">
<path d="M1.86273 11.8771C2.76273 11.8771 3.52428 12.6386 3.52428 13.5386C3.52428 14.4733 2.76273 15.2002 1.86273 15.2002C0.928102 15.2002 0.201172 14.4733 0.201172 13.5386C0.201172 12.6386 0.928102 11.8771 1.86273 11.8771ZM1.86273 6.33856C2.76273 6.33856 3.52428 7.10011 3.52428 8.00012C3.52428 8.93474 2.76273 9.66167 1.86273 9.66167C0.928102 9.66167 0.201172 8.93474 0.201172 8.00012C0.201172 7.10011 0.928102 6.33856 1.86273 6.33856ZM1.86273 4.12316C0.928102 4.12316 0.201172 3.39623 0.201172 2.4616C0.201172 1.56159 0.928102 0.800049 1.86273 0.800049C2.76273 0.800049 3.52428 1.56159 3.52428 2.4616C3.52428 3.39623 2.76273 4.12316 1.86273 4.12316Z" fill="white"/>
</svg>
