<svg width="16" height="17" viewBox="0 0 16 17" fill="none" xmlns="http://www.w3.org/2000/svg">
<path d="M4.625 9.375C4.13281 9.375 3.78125 9.02344 3.78125 8.53125V4.59375C3.78125 4.13672 4.13281 3.75 4.625 3.75C5.08203 3.75 5.46875 4.13672 5.46875 4.59375V8.53125C5.46875 9.02344 5.08203 9.375 4.625 9.375ZM10.5312 4.59375C10.5312 4.13672 10.8828 3.75 11.375 3.75C11.832 3.75 12.2188 4.13672 12.2188 4.59375V10.7812C12.2188 11.2734 11.832 11.625 11.375 11.625C10.8828 11.625 10.5312 11.2734 10.5312 10.7812V4.59375ZM8 8.25C7.50781 8.25 7.15625 7.89844 7.15625 7.40625V4.59375C7.15625 4.13672 7.50781 3.75 8 3.75C8.45703 3.75 8.84375 4.13672 8.84375 4.59375V7.40625C8.84375 7.89844 8.45703 8.25 8 8.25ZM0.125 2.625C0.125 1.39453 1.10938 0.375 2.375 0.375H13.625C14.8555 0.375 15.875 1.39453 15.875 2.625V13.875C15.875 15.1406 14.8555 16.125 13.625 16.125H2.375C1.10938 16.125 0.125 15.1406 0.125 13.875V2.625ZM2.375 14.4375H13.625C13.9062 14.4375 14.1875 14.1914 14.1875 13.875V2.625C14.1875 2.34375 13.9062 2.0625 13.625 2.0625H2.375C2.05859 2.0625 1.8125 2.34375 1.8125 2.625V13.875C1.8125 14.1914 2.05859 14.4375 2.375 14.4375Z" fill="white"/>
</svg>
