<svg width="20" height="16" viewBox="0 0 20 16" fill="none" xmlns="http://www.w3.org/2000/svg">
  <path fill-rule="evenodd" clip-rule="evenodd" d="M14.4468 0H19.5532C19.6717 0 19.7854 0.0461902 19.8691 0.128398C19.9529 0.210606 20 0.322097 20 0.438356V15.5616C20 15.6779 19.9529 15.7894 19.8691 15.8716C19.7854 15.9538 19.6717 16 19.5532 16H14.4468C14.3283 16 14.2146 15.9538 14.1309 15.8716C14.0471 15.7894 14 15.6779 14 15.5616V0.438356C14 0.322097 14.0471 0.210606 14.1309 0.128398C14.2146 0.0461902 14.3283 0 14.4468 0ZM15 4.66667C15 4.29848 15.2985 4 15.6667 4H18.3333C18.7015 4 19 4.29848 19 4.66667C19 5.03486 18.7015 5.33333 18.3333 5.33333H15.6667C15.2985 5.33333 15 5.03486 15 4.66667ZM15 7.33333C15 6.96514 15.2985 6.66667 15.6667 6.66667H18.3333C18.7015 6.66667 19 6.96514 19 7.33333C19 7.70152 18.7015 8 18.3333 8H15.6667C15.2985 8 15 7.70152 15 7.33333ZM15.6667 9.33333C15.2985 9.33333 15 9.63181 15 10C15 10.3682 15.2985 10.6667 15.6667 10.6667H18.3333C18.7015 10.6667 19 10.3682 19 10C19 9.63181 18.7015 9.33333 18.3333 9.33333H15.6667ZM15 12.6667C15 12.2985 15.2985 12 15.6667 12H18.3333C18.7015 12 19 12.2985 19 12.6667C19 13.0349 18.7015 13.3333 18.3333 13.3333H15.6667C15.2985 13.3333 15 13.0349 15 12.6667Z" fill="white"/>
  <path fill-rule="evenodd" clip-rule="evenodd" d="M7.44676 0H12.5532C12.6717 0 12.7854 0.0461902 12.8691 0.128398C12.9529 0.210606 13 0.322097 13 0.438356V15.5616C13 15.6779 12.9529 15.7894 12.8691 15.8716C12.7854 15.9538 12.6717 16 12.5532 16H7.44676C7.32827 16 7.21464 15.9538 7.13085 15.8716C7.04707 15.7894 7 15.6779 7 15.5616V0.438356C7 0.322097 7.04707 0.210606 7.13085 0.128398C7.21464 0.0461902 7.32827 0 7.44676 0ZM8 4.66667C8 4.29848 8.29848 4 8.66667 4H11.3333C11.7015 4 12 4.29848 12 4.66667C12 5.03486 11.7015 5.33333 11.3333 5.33333H8.66667C8.29848 5.33333 8 5.03486 8 4.66667ZM8 7.33333C8 6.96514 8.29848 6.66667 8.66667 6.66667H11.3333C11.7015 6.66667 12 6.96514 12 7.33333C12 7.70152 11.7015 8 11.3333 8H8.66667C8.29848 8 8 7.70152 8 7.33333ZM8.66667 9.33333C8.29848 9.33333 8 9.63181 8 10C8 10.3682 8.29848 10.6667 8.66667 10.6667H11.3333C11.7015 10.6667 12 10.3682 12 10C12 9.63181 11.7015 9.33333 11.3333 9.33333H8.66667ZM8 12.6667C8 12.2985 8.29848 12 8.66667 12H11.3333C11.7015 12 12 12.2985 12 12.6667C12 13.0349 11.7015 13.3333 11.3333 13.3333H8.66667C8.29848 13.3333 8 13.0349 8 12.6667Z" fill="white"/>
  <path fill-rule="evenodd" clip-rule="evenodd" d="M0.446761 0H5.55324C5.67173 0 5.78536 0.0192459 5.86915 0.0534991C5.95293 0.0877523 6 0.134207 6 0.182648V6.48402C6 6.53246 5.95293 6.57891 5.86915 6.61317C5.78536 6.64742 5.67173 6.66667 5.55324 6.66667H0.446761C0.328273 6.66667 0.214637 6.64742 0.130853 6.61317C0.047069 6.57891 0 6.53246 0 6.48402V0.182648C0 0.134207 0.047069 0.0877523 0.130853 0.0534991C0.214637 0.0192459 0.328273 0 0.446761 0ZM1.66667 4C1.29848 4 1 4.29848 1 4.66667C1 5.03486 1.29848 5.33333 1.66667 5.33333H4.33333C4.70152 5.33333 5 5.03486 5 4.66667C5 4.29848 4.70152 4 4.33333 4H1.66667Z" fill="white"/>
</svg>
