<svg width="14" height="14" viewBox="0 0 14 14" xmlns="http://www.w3.org/2000/svg">
    <path d="M12.0312 0H1.96875C1.4466 0 0.945846 0.207421 0.576634 0.576634C0.207421 0.945846 0 1.4466 0 1.96875V5C0 5.55228 0.447715 6 1 6H6.75187C7.01411 6 7.15113 5.68815 6.97375 5.495C6.85783 5.3706 6.79472 5.20606 6.79772 5.03604C6.80072 4.86603 6.86959 4.70382 6.98983 4.58358C7.11007 4.46334 7.27228 4.39447 7.44229 4.39147C7.61231 4.38847 7.77685 4.45158 7.90125 4.5675L9.87 6.53625C9.99289 6.6593 10.0619 6.82609 10.0619 7C10.0619 7.17391 9.99289 7.3407 9.87 7.46375L7.90125 9.4325C7.7782 9.55539 7.61141 9.62442 7.4375 9.62442C7.26359 9.62442 7.0968 9.55539 6.97375 9.4325C6.85086 9.30945 6.78183 9.14266 6.78183 8.96875C6.78183 8.79484 6.85086 8.62805 6.97375 8.505C7.15221 8.31265 7.0158 8 6.75341 8H1C0.447716 8 0 8.44771 0 9V12.0312C0 12.5534 0.207421 13.0542 0.576634 13.4234C0.945846 13.7926 1.4466 14 1.96875 14H12.0312C12.5534 14 13.0542 13.7926 13.4234 13.4234C13.7926 13.0542 14 12.5534 14 12.0312V1.96875C14 1.4466 13.7926 0.945846 13.4234 0.576634C13.0542 0.207421 12.5534 0 12.0312 0Z"/>
</svg>
