<svg width="113" height="56" viewBox="0 0 113 56" fill="none" xmlns="http://www.w3.org/2000/svg">
<path fill-rule="evenodd" clip-rule="evenodd" d="M27.3138 54.0591L27.3374 54.0496L37.5845 48.8753C40.0003 47.6671 41.5511 45.2432 41.5511 42.5829V32.9885C54.828 24.8099 55.324 12.1812 53.8941 4.61484C53.6488 3.15935 52.5489 2.05943 51.0935 1.81413C43.5271 0.384186 30.8983 0.880042 22.7197 14.1571H13.1252C10.4651 14.1571 8.04075 15.7088 6.83246 18.1244L1.65852 28.3708L1.64908 28.3944C1.3904 29.0411 1.37931 29.8437 1.79173 30.5311C2.23219 31.2652 2.9662 31.523 3.70937 31.523H15.2514C17.6284 31.523 19.9028 32.4739 21.5095 34.1751L21.5209 34.1872L21.533 34.1987C23.2342 35.8053 24.1851 38.0798 24.1851 40.4568V51.9988C24.1851 52.7419 24.443 53.476 25.1771 53.9164C25.8644 54.3288 26.6671 54.3177 27.3138 54.0591ZM24.7685 51.9988C24.7685 51.9989 24.7685 51.9987 24.7685 51.9988ZM49.6782 6.0299C50.3993 10.2566 50.3025 15.7852 47.446 20.8315L47.4401 20.8423C44.7343 25.8673 38.9283 31.1827 26.9977 34.2107C26.3956 33.0911 25.6228 31.9815 24.6747 31.0334C23.7267 30.0854 22.6171 29.3126 21.4975 28.7104C24.5254 16.7798 29.8409 10.9739 34.8659 8.26817L34.8766 8.2621C39.923 5.40568 45.4516 5.30885 49.6782 6.0299ZM37.1446 35.3879V42.5829C37.1446 43.571 36.5678 44.476 35.6641 44.8868L28.5917 48.5129V40.4568C28.5917 39.7125 28.5271 39.0285 28.3977 38.358C31.687 37.544 34.6027 36.5112 37.1446 35.3879ZM37.7279 34.4833C34.893 35.7995 31.5519 37.0143 27.7046 37.9255C27.8948 37.8805 28.0838 37.8348 28.2715 37.7883C31.6237 36.9578 34.5814 35.8984 37.1446 34.7494C37.3413 34.6612 37.5358 34.5725 37.7279 34.4833ZM7.19522 27.1165L10.8094 20.0689L10.8214 20.0441C11.2322 19.1403 12.1371 18.5636 13.1252 18.5636H20.3202C19.1967 21.106 18.1637 24.0224 17.3496 27.3125C16.6508 27.1814 15.9188 27.1165 15.2514 27.1165H7.19522ZM13.1252 17.9803H21.2248C21.2248 17.9804 21.2248 17.9802 21.2248 17.9803H13.1252ZM2.08944 53.6187L1.50744 53.6581L1.50725 53.6553L1.50676 53.6478L1.50503 53.6202L1.49906 53.5157C1.49418 53.4248 1.48775 53.2919 1.4814 53.1218C1.4687 52.7816 1.45627 52.2919 1.45707 51.6895C1.45867 50.4857 1.51312 48.8268 1.72518 47.0081C2.1447 43.4104 3.19712 39.0304 5.82803 36.3995L5.83405 36.3935C9.60067 32.7345 15.6353 32.7261 19.3087 36.3995C22.9782 40.0689 22.9788 46.1065 19.3107 49.7769C16.6801 52.4594 12.3003 53.5378 8.70202 53.9701C6.88289 54.1886 5.22353 54.2463 4.01941 54.2495C3.41685 54.2511 2.92704 54.2391 2.5867 54.2266C2.41651 54.2203 2.28361 54.2139 2.19259 54.2091L2.08802 54.2031L2.06034 54.2014L2.04965 54.2007L2.08944 53.6187ZM2.04965 54.2007L1.54217 54.166L1.50744 53.6581C1.50746 53.6583 1.50747 53.6585 2.08944 53.6187C2.04965 54.2007 2.04943 54.2007 2.04965 54.2007ZM8.98164 39.5531C10.9812 37.5535 14.1555 37.5535 16.1551 39.5531L16.1648 39.5625C18.146 41.4537 18.1601 44.7215 16.1551 46.7265C15.4318 47.4498 14.3081 48.0711 12.9068 48.5628C11.5155 49.051 9.89126 49.3972 8.20496 49.5961L7.88201 49.6256C7.15833 49.692 6.50232 49.7521 5.92849 49.7796C5.95604 49.2058 6.01618 48.5497 6.08252 47.826L6.11203 47.5033C6.31088 45.8169 6.65712 44.1927 7.1453 42.8014C7.637 41.4001 8.25831 40.2764 8.98164 39.5531ZM39.3478 22.6134C42.7006 22.6134 45.6009 19.8278 45.6009 16.3603C45.6009 13.0008 42.7074 10.1072 39.3478 10.1072C35.8803 10.1072 33.0947 13.0076 33.0947 16.3603C33.0947 19.8211 35.887 22.6134 39.3478 22.6134ZM41.1944 16.3603C41.1944 17.4398 40.3579 18.2069 39.3478 18.2069C38.2525 18.2069 37.5013 17.4556 37.5013 16.3603C37.5013 15.3502 38.2684 14.5138 39.3478 14.5138C40.3418 14.5138 41.1944 15.3663 41.1944 16.3603Z" fill="black"/>
<path d="M50.267 46.4318L49.0057 54H45.3835L47.5653 40.9091H51.017L50.642 43.2188H50.7869C51.2017 42.4517 51.7869 41.8466 52.5426 41.4034C53.304 40.9602 54.1705 40.7386 55.142 40.7386C56.0511 40.7386 56.8097 40.9375 57.4176 41.3352C58.0313 41.733 58.4631 42.2983 58.7131 43.0312C58.9688 43.7642 59.0114 44.642 58.8409 45.6648L57.4432 54H53.8125L55.0994 46.3125C55.2301 45.5114 55.1278 44.8864 54.7926 44.4375C54.4631 43.983 53.9318 43.7557 53.1989 43.7557C52.7102 43.7557 52.2614 43.8608 51.8523 44.071C51.4432 44.2812 51.0994 44.5881 50.821 44.9915C50.5483 45.3892 50.3636 45.8693 50.267 46.4318ZM60.3558 54L63.2536 36.5455H70.1399C71.4581 36.5455 72.5433 36.7784 73.3956 37.2443C74.2536 37.7102 74.8558 38.3722 75.2024 39.2301C75.5547 40.0824 75.6371 41.0881 75.4496 42.2472C75.2564 43.4062 74.8388 44.4006 74.1967 45.2301C73.5604 46.0597 72.7308 46.6989 71.7081 47.1477C70.6911 47.5909 69.5121 47.8125 68.1712 47.8125H63.5604L64.0717 44.8466H68.0774C68.782 44.8466 69.3842 44.75 69.8842 44.5568C70.3842 44.3636 70.7791 44.0739 71.0689 43.6875C71.3643 43.3011 71.5575 42.821 71.6484 42.2472C71.745 41.6619 71.7109 41.1733 71.5462 40.7812C71.3814 40.3835 71.0831 40.0824 70.6513 39.8778C70.2195 39.6676 69.6513 39.5625 68.9467 39.5625H66.4581L64.0462 54H60.3558ZM71.0945 46.0568L74.12 54H70.0462L67.1143 46.0568H71.0945ZM79.8771 54.2472C79.0476 54.2472 78.3288 54.1023 77.7209 53.8125C77.1186 53.517 76.6754 53.0795 76.3913 52.5C76.1072 51.9205 76.0362 51.2017 76.1783 50.3438C76.3033 49.6165 76.5391 49.0085 76.8857 48.5199C77.2379 48.0256 77.6669 47.6278 78.1726 47.3267C78.6783 47.0256 79.2379 46.7955 79.8516 46.6364C80.4709 46.4773 81.1101 46.3693 81.7692 46.3125C82.5305 46.233 83.1499 46.1562 83.6271 46.0824C84.1101 46.0085 84.4709 45.9034 84.7095 45.767C84.9482 45.625 85.093 45.4148 85.1442 45.1364V45.0852C85.2294 44.5511 85.13 44.1364 84.8459 43.8409C84.5675 43.5398 84.1214 43.3892 83.5078 43.3892C82.8601 43.3892 82.3089 43.5312 81.8544 43.8153C81.4055 44.0994 81.0845 44.4602 80.8913 44.8977L77.5845 44.625C77.88 43.8295 78.326 43.142 78.9226 42.5625C79.5249 41.9773 80.2493 41.5284 81.0959 41.2159C81.9425 40.8977 82.8913 40.7386 83.9425 40.7386C84.6697 40.7386 85.3487 40.8239 85.9794 40.9943C86.6158 41.1648 87.1641 41.429 87.6243 41.7869C88.0902 42.1449 88.4254 42.6051 88.63 43.1676C88.8402 43.7244 88.8828 44.392 88.7578 45.1705L87.2834 54H83.8402L84.147 52.1847H84.0447C83.7663 52.5938 83.4254 52.9545 83.022 53.267C82.6186 53.5739 82.1555 53.8153 81.6328 53.9915C81.1101 54.1619 80.5249 54.2472 79.8771 54.2472ZM81.3345 51.7415C81.8629 51.7415 82.3487 51.6364 82.7919 51.4261C83.2408 51.2102 83.6101 50.9205 83.8999 50.5568C84.1953 50.1932 84.3828 49.7812 84.4624 49.321L84.6839 47.9318C84.5703 48.0057 84.4055 48.071 84.1896 48.1278C83.9794 48.1847 83.7493 48.2386 83.4993 48.2898C83.255 48.3352 83.0078 48.3778 82.7578 48.4176C82.5078 48.4517 82.2834 48.4858 82.0845 48.5199C81.647 48.5824 81.255 48.6818 80.9084 48.8182C80.5618 48.9545 80.2805 49.1392 80.0646 49.3722C79.8487 49.5994 79.7152 49.8835 79.6641 50.2244C79.5845 50.7188 79.701 51.0966 80.0135 51.358C80.3317 51.6136 80.772 51.7415 81.3345 51.7415ZM99.245 40.9091L98.7933 43.6364H90.9013L91.3615 40.9091H99.245ZM93.6626 37.7727H97.2933L95.2649 49.9773C95.2081 50.3125 95.2166 50.5739 95.2905 50.7614C95.3643 50.9432 95.4865 51.071 95.657 51.1449C95.8331 51.2187 96.0433 51.2557 96.2876 51.2557C96.4581 51.2557 96.6314 51.2415 96.8075 51.2131C96.9837 51.179 97.1172 51.1534 97.2081 51.1364L97.3445 53.8381C97.1399 53.9006 96.8643 53.9687 96.5178 54.0426C96.1768 54.1165 95.7734 54.1619 95.3075 54.179C94.4212 54.2131 93.6712 54.0966 93.0575 53.8295C92.4439 53.5568 92.0036 53.1392 91.7365 52.5767C91.4695 52.0142 91.4126 51.3068 91.5661 50.4545L93.6626 37.7727ZM105.219 54.2557C103.879 54.2557 102.768 53.983 101.887 53.4375C101.006 52.8864 100.387 52.108 100.029 51.1023C99.6768 50.0909 99.6172 48.8949 99.8501 47.5142C100.077 46.1676 100.535 44.9858 101.222 43.9688C101.915 42.9517 102.785 42.1591 103.83 41.5909C104.876 41.0227 106.04 40.7386 107.325 40.7386C108.188 40.7386 108.969 40.8778 109.668 41.1562C110.373 41.429 110.958 41.8437 111.424 42.4006C111.89 42.9517 112.208 43.642 112.379 44.4716C112.555 45.3011 112.552 46.2727 112.37 47.3864L112.208 48.3835H101.163L101.512 46.1335H109.148C109.234 45.6108 109.2 45.1477 109.046 44.7443C108.893 44.3409 108.637 44.0256 108.279 43.7983C107.921 43.5653 107.481 43.4489 106.958 43.4489C106.424 43.4489 105.924 43.5795 105.458 43.8409C104.992 44.1023 104.6 44.446 104.282 44.8722C103.969 45.2926 103.768 45.75 103.677 46.2443L103.276 48.4773C103.163 49.1648 103.185 49.7358 103.344 50.1903C103.509 50.6449 103.793 50.9858 104.197 51.2131C104.6 51.4347 105.112 51.5455 105.731 51.5455C106.134 51.5455 106.512 51.4886 106.864 51.375C107.222 51.2614 107.54 51.0938 107.819 50.8722C108.097 50.6449 108.325 50.3636 108.501 50.0284L111.816 50.25C111.509 51.0568 111.043 51.7614 110.418 52.3636C109.793 52.9602 109.04 53.4261 108.16 53.7614C107.285 54.0909 106.305 54.2557 105.219 54.2557Z" fill="black"/>
</svg>
