<svg width="98" height="38" viewBox="0 0 98 38" fill="none" xmlns="http://www.w3.org/2000/svg">
<path fill-rule="evenodd" clip-rule="evenodd" d="M19.0344 36.6831L19.0504 36.6767L26.0038 33.1656C27.6431 32.3457 28.6954 30.701 28.6954 28.8958V22.3852C37.7048 16.8355 38.0413 8.26602 37.071 3.1317C36.9046 2.14405 36.1582 1.39768 35.1706 1.23122C30.0363 0.260907 21.4667 0.597381 15.917 9.60679H9.40643C7.60133 9.60679 5.95625 10.6597 5.13635 12.2989L1.62545 19.2518L1.61905 19.2678C1.44352 19.7067 1.43599 20.2513 1.71585 20.7177C2.01473 21.2159 2.51281 21.3908 3.01711 21.3908H10.8492C12.4622 21.3908 14.0055 22.0361 15.0958 23.1905L15.1035 23.1987L15.1117 23.2064C16.2661 24.2967 16.9114 25.84 16.9114 27.453V35.2851C16.9114 35.7894 17.0863 36.2875 17.5845 36.5863C18.0509 36.8662 18.5955 36.8587 19.0344 36.6831ZM25.8263 32.8118C26.2042 32.6229 26.5477 32.3867 26.8504 32.113C26.5477 32.3867 26.2042 32.6228 25.8264 32.8117L25.8263 32.8118ZM28.2997 22.1629C28.8621 21.8237 29.3908 21.4727 29.8874 21.1114C29.3908 21.4727 28.8621 21.8237 28.2997 22.1629V22.1629ZM17.8311 7.58053C17.2417 8.30803 16.6757 9.11301 16.1393 10.0025H16.1393C16.6758 9.11301 17.2417 8.30803 17.8311 7.58053ZM6.43238 11.2029C6.05404 11.5614 5.73321 11.9903 5.49039 12.4759L1.98657 19.4148C1.84916 19.7584 1.84916 20.1706 2.05527 20.5141C2.26138 20.8576 2.60489 20.995 3.01711 20.995H10.8492C12.5667 20.995 14.2156 21.682 15.3835 22.9187C16.6202 24.0866 17.3072 25.7355 17.3072 27.453V35.2851C17.3072 35.6973 17.4446 36.0408 17.7881 36.2469C18.1316 36.453 18.5438 36.453 18.8874 36.3156L18.8874 36.3156C18.5439 36.453 18.1317 36.453 17.7882 36.2468C17.4447 36.0407 17.3073 35.6972 17.3073 35.285V27.4529C17.3073 25.7354 16.6203 24.0865 15.3836 22.9186C14.2157 21.6819 12.5668 20.9949 10.8493 20.9949H3.01718C2.60497 20.9949 2.26146 20.8575 2.05535 20.514C1.84924 20.1705 1.84924 19.7583 1.98665 19.4148L5.49047 12.4758C5.73327 11.9902 6.05407 11.5614 6.43238 11.2029ZM34.2103 4.09193C34.6996 6.96001 34.6339 10.7116 32.6956 14.1359L32.6915 14.1432C30.8555 17.553 26.9157 21.1599 18.8199 23.2146C18.4113 22.4549 17.8869 21.7019 17.2436 21.0586C16.6003 20.4153 15.8473 19.8909 15.0876 19.4823C17.1423 11.3865 20.7492 7.44681 24.159 5.61075L24.1663 5.60663C27.5906 3.66835 31.3422 3.60264 34.2103 4.09193ZM31.1529 17.0081C31.9408 16.1257 32.5592 15.224 33.0401 14.3308C35.1012 10.6896 35.1012 6.70483 34.5516 3.75063C31.5974 3.20101 27.6126 3.20101 23.9714 5.26208C23.5249 5.50253 23.0762 5.77733 22.6288 6.0905C23.0762 5.77736 23.5248 5.50259 23.9713 5.26216C27.6126 3.20109 31.5973 3.20109 34.5515 3.7507C35.1011 6.70491 35.1011 10.6896 33.04 14.3309C32.5591 15.224 31.9408 16.1257 31.1529 17.0081ZM25.7053 28.8958C25.7053 29.5663 25.3139 30.1803 24.7007 30.4591L19.9015 32.9197V27.453C19.9015 26.948 19.8577 26.4839 19.7699 26.0288C22.0019 25.4765 23.9804 24.7757 25.7053 24.0134V28.8958ZM25.5878 30.2772C25.9133 29.8995 26.1012 29.411 26.1012 28.8957V23.3995C24.1775 24.2926 21.9103 25.1171 19.2996 25.7354C19.2997 25.7354 19.2997 25.7354 19.2997 25.7354C19.4287 25.7049 19.5569 25.6738 19.6843 25.6423C21.959 25.0787 23.966 24.3598 25.7053 23.5802C25.8388 23.5203 25.9707 23.4601 26.1011 23.3996V28.8958C26.1011 29.411 25.9132 29.8995 25.5878 30.2772ZM5.3825 18.4007L7.83498 13.6184L7.84311 13.6015C8.12186 12.9883 8.73594 12.5969 9.40643 12.5969H14.2888C13.5263 14.3221 12.8254 16.3011 12.273 18.5337C11.7988 18.4447 11.302 18.4007 10.8492 18.4007H5.3825ZM7.94534 12.7866C8.33269 12.4169 8.85414 12.2011 9.40643 12.2011H14.9026C14.8421 12.3315 14.7819 12.4634 14.722 12.5969C13.9424 14.3362 13.2235 16.3432 12.6599 18.6179C12.6284 18.7453 12.5973 18.8735 12.5668 19.0025C12.5668 19.0025 12.5668 19.0025 12.5668 19.0026C13.1851 16.3919 14.0096 14.1247 14.9027 12.201H9.4065C8.85418 12.201 8.3327 12.4169 7.94534 12.7866ZM4.73466 24.9797C1.36825 28.3462 1.91787 36.3843 1.91787 36.3843L1.52294 36.4111L1.52281 36.4092L1.52248 36.4041L1.5213 36.3853L1.51725 36.3144C1.51394 36.2527 1.50958 36.1626 1.50527 36.0471C1.49665 35.8163 1.48821 35.484 1.48876 35.0752C1.48984 34.2584 1.52679 33.1327 1.67069 31.8986C1.95536 29.4573 2.66951 26.4851 4.45477 24.6998L4.45885 24.6958C7.01477 22.2129 11.1097 22.2072 13.6024 24.6998C16.0924 27.1898 16.0928 31.2868 13.6037 33.7774C11.8186 35.5976 8.84669 36.3294 6.40497 36.6228C5.17056 36.7711 4.04457 36.8102 3.22749 36.8124C2.81861 36.8134 2.48623 36.8053 2.25529 36.7968C2.1398 36.7926 2.04962 36.7882 1.98786 36.7849L1.9169 36.7809L1.89812 36.7797L1.89086 36.7792L1.5465 36.7557L1.52294 36.4111C1.52295 36.4112 1.52296 36.4113 1.91787 36.3843C1.91787 36.3843 8.0721 36.8051 11.8659 34.6091C8.07209 36.8051 1.91795 36.3843 1.91795 36.3843C1.91795 36.3843 1.36833 28.3461 4.73474 24.9797C4.73472 24.9797 4.73469 24.9797 4.73466 24.9797ZM6.59472 26.8398C7.95159 25.4829 10.1055 25.4829 11.4624 26.8398L11.469 26.8462C12.8134 28.1295 12.823 30.3469 11.4624 31.7075C10.9716 32.1983 10.2091 32.6199 9.25819 32.9536C8.3141 33.2848 7.21196 33.5198 6.06769 33.6547L5.84854 33.6747C5.35747 33.7198 4.91232 33.7606 4.52294 33.7793C4.54163 33.3899 4.58244 32.9447 4.62746 32.4536L4.64748 32.2346C4.78242 31.0903 5.01736 29.9881 5.34863 29.044C5.68228 28.0931 6.10388 27.3306 6.59472 26.8398ZM11.7423 31.9874C13.2538 30.4759 13.2538 28.0026 11.7423 26.5599C10.3726 25.1901 8.26928 25.0617 6.76199 26.1746C8.26929 25.0617 10.3726 25.19 11.7424 26.5598C13.2538 28.0026 13.2538 30.4758 11.7424 31.9873C11.7424 31.9873 11.7423 31.9874 11.7423 31.9874ZM27.2003 15.345C29.4754 15.345 31.4435 13.4548 31.4435 11.1019C31.4435 8.82217 29.48 6.85869 27.2003 6.85869C24.8474 6.85869 22.9572 8.82677 22.9572 11.1019C22.9572 13.4502 24.852 15.345 27.2003 15.345ZM28.4534 11.1019C28.4534 11.8343 27.8858 12.3549 27.2003 12.3549C26.4571 12.3549 25.9473 11.8451 25.9473 11.1019C25.9473 10.4164 26.4679 9.84883 27.2003 9.84883C27.8749 9.84883 28.4534 10.4273 28.4534 11.1019ZM29.7834 13.932C29.0911 14.5639 28.1765 14.9492 27.2003 14.9492C25.0706 14.9492 23.353 13.2316 23.353 11.1019C23.353 10.017 23.8289 9.0082 24.5903 8.29602C23.8289 9.0082 23.3531 10.0169 23.3531 11.1018C23.3531 13.2316 25.0706 14.9491 27.2004 14.9491C28.1766 14.9491 29.0911 14.5638 29.7834 13.932ZM28.342 12.3039C28.6528 12.011 28.8492 11.5921 28.8492 11.1019C28.8492 10.2087 28.0935 9.453 27.2003 9.453C26.7476 9.453 26.3558 9.62043 26.0678 9.8908C26.3558 9.62038 26.7477 9.45293 27.2004 9.45293C28.0936 9.45293 28.8493 10.2087 28.8493 11.1018C28.8493 11.5921 28.6529 12.011 28.342 12.3039Z" fill="#1890FF"/>
<path d="M37.6172 26.6914L35.918 36.5H33.1523L35.3555 23.8203H37.9453L37.6172 26.6914ZM36.6445 29.6914L35.8008 29.7031C35.8945 28.9453 36.0781 28.1992 36.3516 27.4648C36.6328 26.7227 37.0039 26.0586 37.4648 25.4727C37.9258 24.8789 38.4844 24.4102 39.1406 24.0664C39.8047 23.7227 40.5703 23.5625 41.4375 23.5859C42.125 23.6016 42.6953 23.7383 43.1484 23.9961C43.6094 24.2539 43.9648 24.6016 44.2148 25.0391C44.4727 25.4766 44.6406 25.9766 44.7188 26.5391C44.7969 27.1016 44.8008 27.6914 44.7305 28.3086L43.3711 36.5H40.5938L41.9766 28.2734C42.0234 27.8203 42.0078 27.4141 41.9297 27.0547C41.8516 26.6875 41.6797 26.3984 41.4141 26.1875C41.1484 25.9688 40.7656 25.8555 40.2656 25.8477C39.7188 25.832 39.2383 25.9336 38.8242 26.1523C38.4102 26.3711 38.0547 26.6719 37.7578 27.0547C37.4609 27.4297 37.2188 27.8477 37.0312 28.3086C36.8516 28.7695 36.7227 29.2305 36.6445 29.6914ZM49.3711 19.4375L55.0781 19.4492C56.1172 19.4727 57.0469 19.668 57.8672 20.0352C58.6953 20.4023 59.332 20.9531 59.7773 21.6875C60.2305 22.4219 60.4102 23.3516 60.3164 24.4766C60.2461 25.3828 60.0117 26.1562 59.6133 26.7969C59.2227 27.4297 58.707 27.9648 58.0664 28.4023C57.4336 28.8398 56.7148 29.2031 55.9102 29.4922L54.9609 29.9141H49.5352L49.9219 27.582L53.7188 27.5938C54.3438 27.5938 54.9219 27.4805 55.4531 27.2539C55.9844 27.0195 56.4258 26.6836 56.7773 26.2461C57.1289 25.8008 57.3477 25.2578 57.4336 24.6172C57.5117 24.0234 57.4648 23.5195 57.293 23.1055C57.1211 22.6914 56.8398 22.375 56.4492 22.1562C56.0586 21.9297 55.5742 21.8086 54.9961 21.793L51.8438 21.7812L49.2891 36.5H46.4062L49.3711 19.4375ZM55.9336 36.5L53.3672 28.8359L56.2383 28.8242L58.9922 36.3359V36.5H55.9336ZM68.2031 33.957L69.1641 27.875C69.2109 27.4688 69.1836 27.1016 69.082 26.7734C68.9805 26.4453 68.793 26.1875 68.5195 26C68.2539 25.8047 67.9023 25.7031 67.4648 25.6953C67.0742 25.6875 66.707 25.7539 66.3633 25.8945C66.0195 26.0273 65.7266 26.2266 65.4844 26.4922C65.25 26.7578 65.0938 27.082 65.0156 27.4648L62.2617 27.4766C62.3086 26.8125 62.5039 26.2344 62.8477 25.7422C63.1992 25.2422 63.6406 24.832 64.1719 24.5117C64.7109 24.1836 65.2891 23.9453 65.9062 23.7969C66.5312 23.6406 67.1406 23.5664 67.7344 23.5742C68.5938 23.5898 69.3555 23.7734 70.0195 24.125C70.6836 24.4766 71.1875 24.9727 71.5312 25.6133C71.8828 26.2539 72.0156 27.0273 71.9297 27.9336L71.0039 33.582C70.9336 34.0273 70.8828 34.4844 70.8516 34.9531C70.8281 35.4141 70.8906 35.8594 71.0391 36.2891L71.0156 36.5L68.2852 36.5117C68.168 36.0977 68.1094 35.6758 68.1094 35.2461C68.1094 34.8086 68.1406 34.3789 68.2031 33.957ZM69.4805 28.7891L69.1992 30.5352L67.3711 30.5234C66.9961 30.5234 66.6094 30.5586 66.2109 30.6289C65.8203 30.6992 65.4531 30.8203 65.1094 30.9922C64.7656 31.1641 64.4766 31.3984 64.2422 31.6953C64.0078 31.9844 63.8633 32.3477 63.8086 32.7852C63.7695 33.1367 63.8086 33.4414 63.9258 33.6992C64.0508 33.9492 64.2383 34.1484 64.4883 34.2969C64.7383 34.4453 65.0352 34.5234 65.3789 34.5312C65.8398 34.5391 66.293 34.4492 66.7383 34.2617C67.1914 34.0742 67.582 33.8086 67.9102 33.4648C68.2461 33.1133 68.4766 32.7109 68.6016 32.2578L69.3398 33.5234C69.168 34 68.9258 34.4375 68.6133 34.8359C68.3086 35.2344 67.9531 35.5781 67.5469 35.8672C67.1406 36.1562 66.6953 36.3789 66.2109 36.5352C65.7344 36.6914 65.2422 36.7656 64.7344 36.7578C64.0312 36.7422 63.3906 36.582 62.8125 36.2773C62.2344 35.9648 61.7773 35.5312 61.4414 34.9766C61.1055 34.4219 60.957 33.7812 60.9961 33.0547C61.0352 32.2344 61.2422 31.5508 61.6172 31.0039C62 30.4492 62.4883 30.0117 63.082 29.6914C63.6836 29.3633 64.3398 29.1289 65.0508 28.9883C65.7617 28.8477 66.4648 28.7773 67.1602 28.7773L69.4805 28.7891ZM81.2109 23.8203L80.8477 25.8828H73.9102L74.2617 23.8203H81.2109ZM76.8047 20.7148H79.5586L77.4609 33.0195C77.4297 33.293 77.4297 33.5312 77.4609 33.7344C77.5 33.9375 77.5898 34.0977 77.7305 34.2148C77.8789 34.3242 78.1055 34.3828 78.4102 34.3906C78.5742 34.3984 78.7383 34.3906 78.9023 34.3672C79.0742 34.3438 79.2461 34.3203 79.418 34.2969L79.2188 36.4766C78.9375 36.5625 78.6484 36.625 78.3516 36.6641C78.0625 36.7031 77.7695 36.7188 77.4727 36.7109C76.7695 36.7031 76.2031 36.543 75.7734 36.2305C75.3438 35.9102 75.043 35.4844 74.8711 34.9531C74.6992 34.4219 74.6445 33.8281 74.707 33.1719L76.8047 20.7148ZM86.8125 36.7344C85.9453 36.7188 85.1758 36.5508 84.5039 36.2305C83.8398 35.9023 83.2891 35.4609 82.8516 34.9062C82.4141 34.3438 82.0977 33.6992 81.9023 32.9727C81.707 32.2383 81.6406 31.457 81.7031 30.6289L81.75 30.1484C81.8359 29.2969 82.043 28.4766 82.3711 27.6875C82.6992 26.8906 83.1367 26.1836 83.6836 25.5664C84.2383 24.9414 84.8906 24.4492 85.6406 24.0898C86.3906 23.7305 87.2266 23.5625 88.1484 23.5859C89.0312 23.6016 89.7773 23.7852 90.3867 24.1367C90.9961 24.4883 91.4805 24.957 91.8398 25.543C92.1992 26.1211 92.4375 26.7773 92.5547 27.5117C92.6797 28.2461 92.6992 29.0078 92.6133 29.7969L92.4492 31.0039H82.9336L83.2617 28.9766L89.9766 28.9883L90.0234 28.7422C90.0938 28.25 90.0664 27.7852 89.9414 27.3477C89.8242 26.9102 89.6055 26.5508 89.2852 26.2695C88.9648 25.9883 88.5352 25.8398 87.9961 25.8242C87.4102 25.8086 86.9062 25.9297 86.4844 26.1875C86.0703 26.4453 85.7266 26.793 85.4531 27.2305C85.1797 27.668 84.9648 28.1445 84.8086 28.6602C84.6602 29.168 84.5547 29.6641 84.4922 30.1484L84.4453 30.6172C84.3984 31.0781 84.4102 31.5352 84.4805 31.9883C84.5508 32.4414 84.6875 32.8555 84.8906 33.2305C85.0938 33.5977 85.375 33.8984 85.7344 34.1328C86.0938 34.3594 86.5391 34.4805 87.0703 34.4961C87.7344 34.5117 88.3359 34.375 88.875 34.0859C89.4219 33.7891 89.918 33.4062 90.3633 32.9375L91.7227 34.3789C91.3633 34.918 90.918 35.3633 90.3867 35.7148C89.8633 36.0664 89.293 36.3281 88.6758 36.5C88.0664 36.6641 87.4453 36.7422 86.8125 36.7344Z" fill="#1890FF"/>
</svg>
