<svg viewBox="0 0 14 14" fill="none" xmlns="http://www.w3.org/2000/svg">
  <path d="M9.185 3.032a.483.483 0 01-.684 0 .483.483 0 00-.825.342v1.971a1 1 0 001 1h1.971c.43 0 .646-.52.342-.825a.483.483 0 010-.683l.11-.11c.248-.249.652-.249.902 0l1.548 1.549a1 1 0 010 1.414l-1.548 1.548a.638.638 0 01-.902 0l-.11-.11a.483.483 0 010-.683.483.483 0 00-.341-.825H8.676a1 1 0 00-1 1.001v1.972c0 .43.52.646.825.342a.483.483 0 01.683 0l.11.11c.25.248.25.652 0 .901l-1.549 1.55a1 1 0 01-1.414 0l-1.548-1.55a.638.638 0 010-.902l.11-.109a.483.483 0 01.683 0 .483.483 0 00.824-.342V8.621a1 1 0 00-1-1H3.43c-.43 0-.646.521-.342.825a.483.483 0 010 .684l-.11.11a.638.638 0 01-.902 0L.526 7.69a1 1 0 010-1.414l1.55-1.548c.248-.25.652-.25.902 0l.109.109a.483.483 0 010 .684.483.483 0 00.342.825H5.4a1 1 0 001-1V3.374c0-.43-.52-.646-.825-.342a.483.483 0 01-.683 0l-.11-.109a.638.638 0 010-.902L6.331.47a1 1 0 011.414 0l1.549 1.55c.25.249.25.653 0 .902l-.11.11z"/>
</svg>