<svg width="40" height="40" viewBox="0 0 40 40" fill="none" xmlns="http://www.w3.org/2000/svg">
<path d="M18.1439 26.8062V21.8562H13.1939C12.1111 21.8562 11.3377 21.0828 11.3377 20C11.3377 18.9945 12.1111 18.1437 13.1939 18.1437H18.1439V13.1937C18.1439 12.1882 18.9174 11.3375 20.0002 11.3375C21.0057 11.3375 21.8564 12.1882 21.8564 13.1937V18.1437H26.8064C27.8119 18.1437 28.6627 18.9945 28.6627 20C28.6627 21.0828 27.8119 21.8562 26.8064 21.8562H21.8564V26.8062C21.8564 27.889 21.0057 28.6624 20.0002 28.6624C18.9174 28.6624 18.1439 27.889 18.1439 26.8062ZM39.8002 20C39.8002 30.9828 30.9057 39.7999 20.0002 39.7999C9.01738 39.7999 0.200195 30.9828 0.200195 20C0.200195 9.09448 9.01738 0.199951 20.0002 0.199951C30.9057 0.199951 39.8002 9.09448 39.8002 20ZM20.0002 3.91245C11.1057 3.91245 3.91269 11.1828 3.91269 20C3.91269 28.8945 11.1057 36.0874 20.0002 36.0874C28.8174 36.0874 36.0877 28.8945 36.0877 20C36.0877 11.1828 28.8174 3.91245 20.0002 3.91245Z" fill="white"/>
</svg>
