<svg xmlns="http://www.w3.org/2000/svg" width="15" height="15" viewBox="0 0 15 15" fill="none">
<path d="M8.47704 14H6.52458C6.40474 14 6.28914 13.9557 6.20004 13.8756C6.11095 13.7954 6.05467 13.6852 6.04204 13.566L5.89748 12.2049C5.69566 12.1362 5.49851 12.0546 5.30724 11.9604L4.24353 12.8206C4.15043 12.8956 4.03293 12.9336 3.91356 12.9272C3.79418 12.9209 3.68135 12.8707 3.5967 12.7863L2.21604 11.4058C2.13164 11.3212 2.08146 11.2084 2.07513 11.089C2.06881 10.9696 2.10678 10.8521 2.18176 10.7591L3.04237 9.69415C2.94806 9.50294 2.86628 9.3058 2.79754 9.10398L1.43402 8.95846C1.31491 8.94584 1.20468 8.88961 1.12455 8.80059C1.04441 8.71157 1.00005 8.59606 1 8.47629V6.52371C1.00005 6.40394 1.04441 6.28843 1.12455 6.19941C1.20468 6.11039 1.31491 6.05416 1.43402 6.04154L2.79528 5.89699C2.86401 5.69517 2.94579 5.49803 3.0401 5.30682L2.1795 4.24192C2.10451 4.14883 2.06654 4.03133 2.07287 3.91197C2.0792 3.79261 2.12937 3.67979 2.21378 3.59515L3.59444 2.21463C3.67909 2.13023 3.79192 2.08006 3.91129 2.07373C4.03066 2.06741 4.14817 2.10537 4.24127 2.18035L5.30627 3.04055C5.49754 2.94641 5.69469 2.86475 5.89651 2.79607L6.04107 1.43495C6.05349 1.31545 6.10981 1.20481 6.19914 1.12446C6.28846 1.04411 6.40443 0.999758 6.52458 1H8.47704C8.59687 0.999973 8.71247 1.0443 8.80157 1.12443C8.89067 1.20456 8.94695 1.31482 8.95957 1.43398L9.10382 2.7951C9.30573 2.86377 9.503 2.94544 9.69437 3.03958L10.7591 2.17938C10.8522 2.1044 10.9697 2.06644 11.089 2.07276C11.2084 2.07909 11.3212 2.12926 11.4059 2.21366L12.7865 3.59418C12.8709 3.67882 12.9211 3.79164 12.9275 3.911C12.9338 4.03036 12.8958 4.14786 12.8208 4.24095L11.9602 5.30585C12.0544 5.49712 12.1362 5.69425 12.205 5.89602L13.5663 6.04057C13.6854 6.05326 13.7955 6.10953 13.8756 6.19854C13.9556 6.28755 14 6.40302 14 6.52274V8.47532C14.0002 8.59501 13.9562 8.71055 13.8764 8.79974C13.7966 8.88892 13.6866 8.94545 13.5676 8.95846L12.2063 9.10301C12.1375 9.30478 12.0557 9.50191 11.9615 9.69318L12.8221 10.7581C12.8971 10.8512 12.9351 10.9687 12.9287 11.088C12.9224 11.2074 12.8722 11.3202 12.7878 11.4048L11.4072 12.7863C11.3225 12.8707 11.2097 12.9209 11.0903 12.9272C10.971 12.9336 10.8534 12.8956 10.7603 12.8206L9.69566 11.9604C9.50429 12.0546 9.30703 12.1362 9.10511 12.2049L8.96087 13.566C8.94822 13.6854 8.89175 13.7958 8.80238 13.876C8.71302 13.9562 8.59709 14.0003 8.47704 14V14ZM6.96022 13.0298H8.0401L8.17238 11.7829C8.18276 11.6853 8.2225 11.5931 8.28637 11.5186C8.35023 11.444 8.43521 11.3906 8.53008 11.3654C8.87178 11.2743 9.19982 11.138 9.5055 10.9602C9.59061 10.9106 9.68879 10.8881 9.78701 10.8957C9.88522 10.9032 9.9788 10.9405 10.0553 11.0026L11.0307 11.7906L11.7943 11.0271L11.0048 10.0547C10.9428 9.97823 10.9055 9.88466 10.898 9.78645C10.8904 9.68825 10.9129 9.59007 10.9625 9.50497C11.1399 9.19952 11.2758 8.87173 11.3664 8.5303C11.3917 8.4354 11.4451 8.35039 11.5198 8.28653C11.5944 8.22267 11.6866 8.18295 11.7843 8.17264L13.031 8.04005V6.96027L11.7843 6.82769C11.6866 6.81737 11.5944 6.77766 11.5198 6.71379C11.4451 6.64993 11.3917 6.56493 11.3664 6.47002C11.2758 6.12848 11.14 5.80058 10.9625 5.49503C10.9129 5.40993 10.8904 5.31175 10.898 5.21355C10.9055 5.11534 10.9428 5.02177 11.0048 4.94527L11.793 3.96995L11.0294 3.20644L10.054 3.99453C9.9775 4.05657 9.88392 4.09385 9.78571 4.10142C9.6875 4.10898 9.58931 4.08648 9.5042 4.03689C9.19866 3.85957 8.87085 3.72374 8.52943 3.63299C8.43456 3.60775 8.34959 3.55434 8.28572 3.4798C8.22186 3.40526 8.18211 3.3131 8.17173 3.2155L8.04075 1.97015H6.96022L6.82794 3.21711C6.81754 3.31476 6.77775 3.40695 6.71382 3.48149C6.64989 3.55604 6.56485 3.60943 6.46992 3.6346C6.12875 3.72577 5.80126 3.86204 5.49612 4.0398C5.41101 4.08939 5.31282 4.11189 5.21461 4.10433C5.1164 4.09676 5.02282 4.05948 4.94631 3.99744L3.97186 3.20806L3.2086 3.97157L3.99709 4.94689C4.05908 5.02342 4.09631 5.11701 4.10382 5.21521C4.11133 5.31341 4.08877 5.41157 4.03913 5.49664C3.86194 5.80223 3.7261 6.12998 3.63519 6.47132C3.60995 6.56617 3.55653 6.65114 3.48199 6.715C3.40744 6.77886 3.31527 6.8186 3.21766 6.82898L1.97057 6.96157V8.04102L3.21766 8.17361C3.31527 8.18398 3.40744 8.22373 3.48199 8.28759C3.55653 8.35144 3.60995 8.43641 3.63519 8.53127C3.72608 8.87225 3.86181 9.19968 4.03881 9.50497C4.08844 9.59004 4.11101 9.6882 4.1035 9.7864C4.09599 9.8846 4.05876 9.97819 3.99677 10.0547L3.2086 11.0284L3.97219 11.7919L4.94793 11.0039C5.02444 10.9418 5.11802 10.9045 5.21623 10.897C5.31444 10.8894 5.41263 10.9119 5.49774 10.9615C5.80314 11.1389 6.13085 11.2747 6.47219 11.3654C6.56711 11.3906 6.65216 11.444 6.71608 11.5185C6.78001 11.5931 6.8198 11.6852 6.83021 11.7829L6.96022 13.0298Z" fill="white"/>
<path d="M7.49964 10.75C6.85687 10.7499 6.22855 10.5593 5.69414 10.2021C5.15973 9.84495 4.74322 9.33734 4.49729 8.74348C4.25136 8.14961 4.18705 7.49615 4.31249 6.86574C4.43793 6.23533 4.7475 5.65626 5.20203 5.20178C5.65656 4.74729 6.23566 4.4378 6.86609 4.31242C7.49652 4.18705 8.14996 4.25143 8.7438 4.49743C9.33764 4.74342 9.8452 5.15998 10.2023 5.69443C10.5594 6.22889 10.75 6.85723 10.75 7.5C10.7491 8.36173 10.4063 9.18788 9.79693 9.79718C9.18757 10.4065 8.36137 10.7492 7.49964 10.75V10.75ZM7.49964 5.31721C7.06794 5.31728 6.64596 5.44536 6.28705 5.68525C5.92814 5.92514 5.64842 6.26607 5.48326 6.66493C5.31811 7.06379 5.27493 7.50266 5.35919 7.92606C5.44346 8.34946 5.65138 8.73836 5.95666 9.04359C6.26194 9.34883 6.65088 9.55668 7.07429 9.64088C7.4977 9.72507 7.93657 9.68183 8.3354 9.5166C8.73423 9.35138 9.07512 9.07161 9.31495 8.71266C9.55478 8.35371 9.68279 7.9317 9.68279 7.5C9.68213 6.92123 9.4519 6.36636 9.04262 5.95714C8.63333 5.54792 8.07842 5.31777 7.49964 5.31721V5.31721Z" fill="white"/>
</svg>
