<svg width="40" height="30" viewBox="0 0 40 30" fill="none" xmlns="http://www.w3.org/2000/svg">
<path d="M19.9847 29.95C10.9012 29.95 3.65314 24.0305 0.200195 15.1C3.68425 6.16948 10.9323 0.25 19.9847 0.25C29.0369 0.25 36.3161 6.16948 39.8002 15.1C36.3161 24.0305 29.0369 29.95 19.9847 29.95ZM19.9847 26.3914C27.1705 26.3914 33.361 21.7722 36.254 15.1C33.361 8.42777 27.1705 3.80853 19.9847 3.80853C12.8299 3.80853 6.63948 8.42777 3.74647 15.1C6.60837 21.7722 12.7988 26.3914 19.9847 26.3914ZM12.4566 15.1C12.4566 10.515 15.8162 6.81959 19.9535 6.81959C24.122 6.81959 27.4816 10.5492 27.4816 15.1C27.4816 19.685 24.0909 23.3804 19.9535 23.3804C15.8162 23.3804 12.4566 19.6508 12.4566 15.1ZM20.4202 13.0128C20.4202 14.4499 21.4467 15.6132 22.7843 15.6132C24.0597 15.6132 25.1175 14.4499 25.1175 13.0128C25.1175 11.6099 24.0909 10.4466 22.7843 10.4466C21.4778 10.4466 20.4202 11.5757 20.4202 13.0128Z" fill="white"/>
</svg>
