<svg width="20" height="20" viewBox="0 0 20 20" fill="none" xmlns="http://www.w3.org/2000/svg">
<path d="M17.4405 3.69793C17.9241 3.69793 18.3334 4.09181 18.3334 4.5573C18.3334 5.0586 17.9241 5.41668 17.4405 5.41668H16.9941L16.1012 17.054C15.9896 18.2715 14.9851 19.1667 13.7203 19.1667H6.24258C4.9777 19.1667 3.97323 18.2715 3.86163 17.054L2.96877 5.41668H2.55954C2.03871 5.41668 1.66669 5.0586 1.66669 4.5573C1.66669 4.09181 2.03871 3.69793 2.55954 3.69793H5.12651L6.503 1.72853C6.87502 1.19142 7.54466 0.833344 8.25151 0.833344H11.7113C12.4182 0.833344 13.0878 1.19142 13.4598 1.72853L14.8363 3.69793H17.4405ZM8.25151 2.55209C8.1399 2.55209 8.02829 2.62371 7.99109 2.69532L7.28425 3.69793H12.6786L11.9717 2.69532C11.9345 2.62371 11.8229 2.55209 11.7113 2.55209H8.25151ZM15.2084 5.41668H4.75448L5.64734 16.9466C5.68454 17.2331 5.94496 17.4479 6.24258 17.4479H13.7203C14.0179 17.4479 14.2783 17.2331 14.3155 16.9466L15.2084 5.41668Z" fill="currentColor"/>
</svg>
