<svg width="14" height="14" viewBox="0 0 14 14" xmlns="http://www.w3.org/2000/svg">
    <path d="M10.849 8.95893H9.47958C9.17379 8.95893 8.88129 9.10602 8.70845 9.36008L7.73789 10.7373C7.36562 11.2856 6.5679 11.2722 6.19563 10.7373L5.27825 9.37345C5.10541 9.10602 4.81292 8.95893 4.50712 8.95893H3.151C1.40931 8.95893 0 10.3763 0 12.128V13.532C0 13.7861 0.212726 14 0.465337 14H13.5347C13.8006 14 14 13.7861 14 13.532V12.128C14 10.3763 12.5907 8.95893 10.849 8.95893ZM7.00665 7.76886C9.1339 7.76886 10.8756 6.03056 10.8756 3.89112C10.8756 1.7383 9.1339 0 7.00665 0C4.8661 0 3.1377 1.7383 3.1377 3.89112C3.1377 6.03056 4.8661 7.76886 7.00665 7.76886Z"/>
</svg>
