<svg width="500" height="500" viewBox="0 0 500 500" fill="none" xmlns="http://www.w3.org/2000/svg">
    <path d="M449.9 398.49H416.78V398.74H449.9V398.49Z" fill="#EBEBEB"/>
    <path d="M331.22 401.21H322.53V401.46H331.22V401.21Z" fill="#EBEBEB"/>
    <path d="M415.78 389.21H396.59V389.46H415.78V389.21Z" fill="#EBEBEB"/>
    <path d="M95.65 390.89H52.46V391.14H95.65V390.89Z" fill="#EBEBEB"/>
    <path d="M110.89 390.89H104.56V391.14H110.89V390.89Z" fill="#EBEBEB"/>
    <path d="M225.15 395.11H131.47V395.36H225.15V395.11Z" fill="#EBEBEB"/>
    <path d="M238.4 337.8H45.2998C43.7855 337.8 42.3331 337.198 41.2623 336.128C40.1914 335.057 39.5898 333.604 39.5898 332.09V60.66C39.603 59.1543 40.2104 57.7147 41.2798 56.6547C42.3492 55.5947 43.7941 54.9999 45.2998 55H238.4C239.15 55 239.892 55.1477 240.585 55.4346C241.278 55.7216 241.907 56.1422 242.437 56.6724C242.968 57.2026 243.388 57.8321 243.675 58.5249C243.962 59.2176 244.11 59.9602 244.11 60.71V332.09C244.11 332.84 243.962 333.582 243.675 334.275C243.388 334.968 242.968 335.597 242.437 336.128C241.907 336.658 241.278 337.078 240.585 337.365C239.892 337.652 239.15 337.8 238.4 337.8ZM45.2998 55.2C43.8526 55.2026 42.4653 55.7787 41.442 56.8021C40.4186 57.8255 39.8425 59.2127 39.8398 60.66V332.09C39.8425 333.537 40.4186 334.924 41.442 335.948C42.4653 336.971 43.8526 337.547 45.2998 337.55H238.4C239.847 337.547 241.234 336.971 242.258 335.948C243.281 334.924 243.857 333.537 243.86 332.09V60.66C243.857 59.2127 243.281 57.8255 242.258 56.8021C241.234 55.7787 239.847 55.2026 238.4 55.2H45.2998Z" fill="#EBEBEB"/>
    <path d="M454.7 337.8H261.6C260.086 337.8 258.633 337.198 257.563 336.128C256.492 335.057 255.89 333.604 255.89 332.09V60.66C255.903 59.1543 256.511 57.7147 257.58 56.6547C258.65 55.5947 260.094 54.9999 261.6 55H454.7C456.215 55 457.667 55.6016 458.738 56.6724C459.809 57.7433 460.41 59.1956 460.41 60.71V332.09C460.41 333.604 459.809 335.057 458.738 336.128C457.667 337.198 456.215 337.8 454.7 337.8ZM261.6 55.2C260.153 55.2026 258.766 55.7787 257.742 56.8021C256.719 57.8255 256.143 59.2127 256.14 60.66V332.09C256.143 333.537 256.719 334.924 257.742 335.948C258.766 336.971 260.153 337.547 261.6 337.55H454.7C456.147 337.547 457.535 336.971 458.558 335.948C459.581 334.924 460.158 333.537 460.16 332.09V60.66C460.158 59.2127 459.581 57.8255 458.558 56.8021C457.535 55.7787 456.147 55.2026 454.7 55.2H261.6Z" fill="#EBEBEB"/>
    <path d="M500 382.4H0V382.65H500V382.4Z" fill="#EBEBEB"/>
    <path d="M295.68 376.54H377.16V300.62H295.68V376.54Z" fill="#E6E6E6"/>
    <path d="M364.2 382.57H374.6V378.94H364.2V382.57Z" fill="#E0E0E0"/>
    <path d="M130.24 375.81H295.69V300.62H130.24V375.81Z" fill="#E6E6E6"/>
    <path d="M102.6 382.57H128L128 295.03H102.6L102.6 382.57Z" fill="#E6E6E6"/>
    <path d="M215.89 372.3H287.62V306.61H215.89V372.3Z" fill="#F5F5F5"/>
    <path d="M297.68 372.3H369.41V306.61H297.68V372.3Z" fill="#F5F5F5"/>
    <path d="M133.32 372.3H205.05V306.61H133.32V372.3Z" fill="#F5F5F5"/>
    <path d="M127.88 295V382.54H133.42V380.46H374.58V382.54H380.13V295H127.88ZM374.58 334.64H298.37V303.23H374.58V334.64ZM298.37 372.3V339.35H374.58V372.3H298.37ZM215.89 303.23H292.82V372.3H215.89V303.23ZM133.42 339.35H210.35V372.3H133.42V339.35ZM133.42 303.23H210.35V334.67H133.42V303.23Z" fill="#F0F0F0"/>
    <path d="M327.54 315.29H339.54C339.847 315.291 340.151 315.232 340.435 315.116C340.719 314.999 340.977 314.828 341.194 314.611C341.411 314.395 341.584 314.137 341.702 313.854C341.819 313.571 341.88 313.267 341.88 312.96C341.88 312.653 341.819 312.349 341.702 312.066C341.584 311.783 341.411 311.525 341.194 311.309C340.977 311.092 340.719 310.921 340.435 310.804C340.151 310.688 339.847 310.629 339.54 310.63H327.54C326.922 310.63 326.329 310.876 325.892 311.312C325.455 311.749 325.21 312.342 325.21 312.96C325.21 313.578 325.455 314.171 325.892 314.608C326.329 315.045 326.922 315.29 327.54 315.29Z" fill="#E6E6E6"/>
    <path d="M226.21 344.22V332.22C226.21 331.602 225.965 331.009 225.528 330.572C225.091 330.136 224.498 329.89 223.88 329.89C223.573 329.889 223.269 329.948 222.985 330.065C222.701 330.181 222.443 330.352 222.226 330.569C222.009 330.785 221.836 331.043 221.718 331.326C221.601 331.609 221.54 331.913 221.54 332.22V344.22C221.54 344.527 221.601 344.831 221.718 345.114C221.836 345.397 222.009 345.655 222.226 345.871C222.443 346.088 222.701 346.259 222.985 346.376C223.269 346.492 223.573 346.551 223.88 346.55C224.498 346.55 225.091 346.305 225.528 345.868C225.965 345.431 226.21 344.838 226.21 344.22Z" fill="#E6E6E6"/>
    <path d="M327.54 349H339.54C339.847 349.001 340.151 348.942 340.435 348.826C340.719 348.709 340.977 348.538 341.194 348.321C341.411 348.105 341.584 347.847 341.702 347.564C341.819 347.281 341.88 346.977 341.88 346.67C341.88 346.049 341.633 345.454 341.195 345.015C340.756 344.577 340.161 344.33 339.54 344.33H327.54C327.233 344.33 326.929 344.391 326.646 344.508C326.363 344.626 326.105 344.799 325.889 345.016C325.672 345.233 325.501 345.491 325.384 345.775C325.268 346.059 325.209 346.363 325.21 346.67C325.21 347.288 325.455 347.881 325.892 348.318C326.329 348.754 326.922 349 327.54 349Z" fill="#E6E6E6"/>
    <path d="M163.19 315.29H175.19C175.808 315.29 176.4 315.045 176.837 314.608C177.274 314.171 177.52 313.578 177.52 312.96C177.52 312.342 177.274 311.749 176.837 311.312C176.4 310.875 175.808 310.63 175.19 310.63H163.19C162.572 310.63 161.979 310.875 161.542 311.312C161.105 311.749 160.86 312.342 160.86 312.96C160.86 313.578 161.105 314.171 161.542 314.608C161.979 315.045 162.572 315.29 163.19 315.29Z" fill="#E6E6E6"/>
    <path d="M163.19 349H175.19C175.808 349 176.4 348.754 176.837 348.318C177.274 347.881 177.52 347.288 177.52 346.67C177.521 346.363 177.462 346.059 177.345 345.775C177.229 345.491 177.057 345.233 176.841 345.016C176.625 344.799 176.367 344.626 176.084 344.508C175.801 344.391 175.497 344.33 175.19 344.33H163.19C162.883 344.33 162.579 344.391 162.296 344.508C162.013 344.626 161.755 344.799 161.539 345.016C161.322 345.233 161.151 345.491 161.034 345.775C160.918 346.059 160.859 346.363 160.86 346.67C160.86 347.288 161.105 347.881 161.542 348.318C161.979 348.754 162.572 349 163.19 349Z" fill="#E6E6E6"/>
    <path d="M70.9402 380.84H94.6602L94.6602 159.1H70.9402L70.9402 380.84Z" fill="#E0E0E0"/>
    <path d="M52.46 157.16V382.78H70.93V157.16H52.46Z" fill="#E6E6E6"/>
    <path d="M93.77 157.16V382.78H112.25V157.16H93.77Z" fill="#E6E6E6"/>
    <path d="M68.7202 157.16V382.78H115.38V157.16H68.7202ZM111 161.05V201.5H73.1502V161.05H111ZM73.1502 290.2V249.74H111V290.2H73.1502ZM110.95 294.09V334.55H73.1502V294.09H110.95ZM73.1502 245.85V205.4H111V245.85H73.1502ZM73.1502 378.85V338.44H111V378.89L73.1502 378.85Z" fill="#F5F5F5"/>
    <path d="M91.7898 170.48H86.2798V201.87H91.7898V170.48Z" fill="#EBEBEB"/>
    <path d="M86.28 170.48H82.02V201.87H86.28V170.48Z" fill="#E6E6E6"/>
    <path d="M100.31 171.23H91.79V201.88H100.31V171.23Z" fill="#E0E0E0"/>
    <path d="M104.57 171.23H100.31V201.88H104.57V171.23Z" fill="#EBEBEB"/>
    <path d="M79.1702 171.23H73.4902V201.88H79.1702V171.23Z" fill="#EBEBEB"/>
    <path d="M82.0202 171.23H79.1802V201.88H82.0202V171.23Z" fill="#FAFAFA"/>
    <path d="M86.28 245.84H91.79V214.45H86.28V245.84Z" fill="#E6E6E6"/>
    <path d="M91.7898 245.84H96.0498V214.45H91.7898V245.84Z" fill="#EBEBEB"/>
    <path d="M77.7598 245.83H86.2798V215.18H77.7598V245.83Z" fill="#EBEBEB"/>
    <path d="M73.4998 245.83H77.7598V215.18H73.4998V245.83Z" fill="#E0E0E0"/>
    <path d="M98.9001 245.83H104.58V215.18H98.9001V245.83Z" fill="#EBEBEB"/>
    <path d="M96.0501 245.83H98.8901V215.18H96.0501V245.83Z" fill="#F0F0F0"/>
    <path d="M86.28 290.57H91.79V259.18H86.28V290.57Z" fill="#E6E6E6"/>
    <path d="M91.7898 290.57H96.0498V259.18H91.7898V290.57Z" fill="#EBEBEB"/>
    <path d="M77.7598 290.57H86.2798V259.92H77.7598V290.57Z" fill="#EBEBEB"/>
    <path d="M73.4998 290.57H77.7598V259.92H73.4998V290.57Z" fill="#E0E0E0"/>
    <path d="M98.9001 290.57H104.58V259.92H98.9001V290.57Z" fill="#EBEBEB"/>
    <path d="M96.0501 290.57H98.8901V259.92H96.0501V290.57Z" fill="#F0F0F0"/>
    <path d="M91.7898 303.92H86.2798V335.31H91.7898V303.92Z" fill="#EBEBEB"/>
    <path d="M86.28 303.92H82.02V335.31H86.28V303.92Z" fill="#E6E6E6"/>
    <path d="M100.31 303.92H91.79V334.57H100.31V303.92Z" fill="#E0E0E0"/>
    <path d="M104.57 303.92H100.31V334.57H104.57V303.92Z" fill="#EBEBEB"/>
    <path d="M79.1702 303.92H73.4902V334.57H79.1702V303.92Z" fill="#EBEBEB"/>
    <path d="M82.0202 303.92H79.1802V334.57H82.0202V303.92Z" fill="#FAFAFA"/>
    <path d="M86.28 380.04H91.79V348.65H86.28V380.04Z" fill="#E6E6E6"/>
    <path d="M91.7898 380.04H96.0498V348.65H91.7898V380.04Z" fill="#EBEBEB"/>
    <path d="M77.7598 379.3H86.2798V348.65H77.7598V379.3Z" fill="#EBEBEB"/>
    <path d="M73.4998 379.3H77.7598V348.65H73.4998V379.3Z" fill="#E0E0E0"/>
    <path d="M98.9001 379.3H104.58V348.65H98.9001V379.3Z" fill="#FAFAFA"/>
    <path d="M96.0501 379.3H98.8901V348.65H96.0501V379.3Z" fill="#F0F0F0"/>
    <path d="M408.88 335.9C408.78 336.01 409.32 336.75 407.14 336.43C401.79 335.62 392.45 333.43 389.86 327.94C386.15 320.07 397.65 322.94 397.25 318.94C396.85 314.94 383.77 315.61 382.38 309.71C380.99 303.81 389.87 306.62 389.98 303.71C390.09 300.8 379.87 302.62 377.84 296.26C375.81 289.9 383.54 294.58 382.66 291.93C381.78 289.28 373.12 277.31 377.82 275.93C382.52 274.55 390.46 286.83 393.52 288.57C396.58 290.31 399.3 280.28 402.95 284.51C406.6 288.74 400.81 303.56 405.46 306.44C408.93 308.58 407.95 302.68 412.52 303.78C418.74 305.28 416.65 327.21 408.88 335.9Z" fill="#EBEBEB"/>
    <path d="M392.34 303.76C393.919 303.87 395.476 304.189 396.97 304.71C395.987 303.215 394.887 301.801 393.68 300.48C393.606 300.404 393.565 300.301 393.565 300.195C393.565 300.089 393.606 299.986 393.68 299.91C393.755 299.837 393.855 299.796 393.96 299.796C394.065 299.796 394.165 299.837 394.24 299.91C396.831 302.812 399.048 306.027 400.84 309.48C401.765 302.988 400.862 296.366 398.23 290.36C398.2 290.289 398.198 290.209 398.225 290.137C398.253 290.065 398.307 290.006 398.376 289.972C398.445 289.939 398.525 289.934 398.599 289.957C398.672 289.981 398.733 290.032 398.77 290.1C398.77 290.2 403.35 299.67 401.29 310.32C401.84 311.37 402.39 312.48 402.94 313.68C404.857 317.971 406.373 322.43 407.47 327C409.445 323.262 410.526 319.117 410.63 314.89C410.63 314.851 410.638 314.813 410.653 314.777C410.668 314.741 410.69 314.708 410.718 314.681C410.746 314.654 410.78 314.633 410.816 314.619C410.852 314.605 410.891 314.599 410.93 314.6C410.969 314.6 411.008 314.608 411.043 314.623C411.079 314.638 411.112 314.66 411.139 314.688C411.166 314.716 411.187 314.75 411.201 314.786C411.215 314.822 411.221 314.861 411.22 314.9C411.129 319.441 409.909 323.888 407.67 327.84C409.694 336.81 410.368 346.031 409.67 355.2C409.66 355.305 409.609 355.402 409.529 355.471C409.449 355.54 409.346 355.576 409.24 355.57H409.19C409.096 355.551 409.012 355.497 408.954 355.42C408.897 355.342 408.871 355.246 408.88 355.15C409.818 343.517 408.42 331.815 404.77 320.73C403.138 318.833 400.903 317.555 398.44 317.11C398.362 317.098 398.292 317.055 398.245 316.991C398.198 316.928 398.179 316.848 398.19 316.77C398.196 316.732 398.21 316.695 398.23 316.662C398.251 316.629 398.278 316.6 398.309 316.578C398.341 316.556 398.377 316.54 398.415 316.532C398.453 316.523 398.492 316.523 398.53 316.53C400.697 316.898 402.707 317.896 404.31 319.4C402.592 314.567 400.32 309.95 397.54 305.64C395.865 304.934 394.084 304.515 392.27 304.4C392.224 304.396 392.179 304.382 392.139 304.358C392.099 304.335 392.065 304.303 392.039 304.265C392.013 304.226 391.997 304.183 391.99 304.137C391.983 304.091 391.986 304.044 392 304C392.006 303.962 392.02 303.925 392.04 303.892C392.061 303.859 392.088 303.83 392.119 303.808C392.151 303.786 392.187 303.77 392.225 303.762C392.263 303.753 392.302 303.753 392.34 303.76Z" fill="#F5F5F5"/>
    <path d="M415.75 338.94C420.2 339.02 427.8 334.89 430.75 330.87C433.7 326.85 425.26 329.32 426.13 326.11C427 322.9 437.51 325.27 439.45 320.68C441.39 316.09 433.81 317.15 434.11 314.8C434.41 312.45 442.27 312.93 444.79 308.05C447.31 303.17 440.4 305.9 441.49 303.88C442.58 301.86 451.23 293.34 447.61 291.57C443.99 289.8 435.86 298.66 433.14 299.65C430.42 300.64 429.79 294.52 426.25 297.45C422.71 300.38 425.36 313.18 421.19 314.87C418.09 316.13 419.41 310.26 415.84 311.74C409.63 314.33 413.94 338.9 415.75 338.94Z" fill="#E0E0E0"/>
    <g opacity="0.3">
        <path d="M415.75 338.94C420.2 339.02 427.8 334.89 430.75 330.87C433.7 326.85 425.26 329.32 426.13 326.11C427 322.9 437.51 325.27 439.45 320.68C441.39 316.09 433.81 317.15 434.11 314.8C434.41 312.45 442.27 312.93 444.79 308.05C447.31 303.17 440.4 305.9 441.49 303.88C442.58 301.86 451.23 293.34 447.61 291.57C443.99 289.8 435.86 298.66 433.14 299.65C430.42 300.64 429.79 294.52 426.25 297.45C422.71 300.38 425.36 313.18 421.19 314.87C418.09 316.13 419.41 310.26 415.84 311.74C409.63 314.33 413.94 338.9 415.75 338.94Z" fill="#EBEBEB"/>
    </g>
    <path d="M417.22 333.59C417.185 333.582 417.152 333.567 417.124 333.544C417.097 333.521 417.075 333.493 417.06 333.46C415.352 329.73 414.662 325.613 415.06 321.53C415.062 321.491 415.073 321.452 415.09 321.417C415.108 321.381 415.132 321.35 415.162 321.324C415.191 321.297 415.226 321.278 415.263 321.265C415.301 321.252 415.34 321.247 415.38 321.25C415.458 321.258 415.531 321.295 415.583 321.354C415.635 321.414 415.663 321.491 415.66 321.57C415.318 325.444 415.937 329.342 417.46 332.92C419.298 327.948 421.566 323.147 424.24 318.57C423.893 312.469 425.339 306.399 428.4 301.11C428.447 301.056 428.512 301.02 428.584 301.01C428.655 301 428.727 301.015 428.788 301.054C428.849 301.093 428.893 301.152 428.914 301.221C428.934 301.29 428.929 301.364 428.9 301.43C426.065 306.357 424.64 311.968 424.78 317.65C427.98 312.159 431.798 307.052 436.16 302.43C436.235 302.357 436.335 302.316 436.44 302.316C436.545 302.316 436.645 302.357 436.72 302.43C436.757 302.466 436.787 302.51 436.807 302.558C436.828 302.606 436.838 302.658 436.838 302.71C436.838 302.762 436.828 302.814 436.807 302.862C436.787 302.91 436.757 302.954 436.72 302.99C433.488 306.39 430.569 310.075 428 314C430.691 312.99 433.545 312.485 436.42 312.51C436.499 312.515 436.572 312.55 436.626 312.608C436.68 312.665 436.71 312.741 436.71 312.82C436.707 312.898 436.674 312.972 436.618 313.026C436.563 313.08 436.488 313.11 436.41 313.11C433.322 313.078 430.26 313.673 427.41 314.86C425.653 317.552 424.034 320.333 422.56 323.19C423.757 322.361 425.12 321.801 426.555 321.549C427.989 321.297 429.461 321.359 430.87 321.73C430.908 321.739 430.943 321.756 430.974 321.779C431.005 321.803 431.032 321.832 431.051 321.865C431.071 321.899 431.083 321.936 431.088 321.975C431.093 322.013 431.09 322.053 431.08 322.09C431.072 322.128 431.056 322.165 431.033 322.197C431.01 322.229 430.981 322.256 430.947 322.275C430.913 322.295 430.875 322.308 430.836 322.312C430.797 322.316 430.757 322.312 430.72 322.3C429.194 321.904 427.594 321.891 426.062 322.262C424.53 322.634 423.114 323.379 421.94 324.43C416.785 334.576 413.844 345.702 413.31 357.07C413.305 357.173 413.26 357.269 413.186 357.34C413.111 357.411 413.013 357.45 412.91 357.45C412.858 357.449 412.806 357.437 412.759 357.416C412.711 357.394 412.669 357.363 412.633 357.325C412.598 357.287 412.57 357.242 412.553 357.193C412.535 357.144 412.527 357.092 412.53 357.04C412.886 349.03 414.468 341.121 417.22 333.59Z" fill="#F5F5F5"/>
    <path d="M403.22 382.43C398.97 374.43 396.22 362.89 396.22 357.83C396.24 355.759 396.715 353.718 397.612 351.852C398.509 349.985 399.806 348.339 401.41 347.03H423.18C424.784 348.34 426.079 349.986 426.974 351.853C427.869 353.719 428.343 355.76 428.36 357.83C428.36 362.89 425.57 374.44 421.36 382.43H403.22Z" fill="#F0F0F0"/>
    <path d="M366 227.14C366 226.88 366 226.62 366 226.37L367.51 225.53C367.391 224.817 367.203 224.117 366.95 223.44H365.22C365.005 222.971 364.747 222.522 364.45 222.1L365.34 220.63C364.883 220.063 364.367 219.547 363.8 219.09L362.33 219.98C361.908 219.683 361.459 219.425 360.99 219.21V217.48C360.313 217.227 359.613 217.039 358.9 216.92L358.06 218.43C357.81 218.43 357.55 218.43 357.29 218.43C357.03 218.43 356.77 218.43 356.52 218.43L355.68 216.92C354.967 217.039 354.267 217.227 353.59 217.48V219.21C353.121 219.425 352.672 219.683 352.25 219.98L350.77 219.09C350.208 219.55 349.696 220.066 349.24 220.63L350.13 222.1C349.829 222.52 349.571 222.969 349.36 223.44H347.63C347.372 224.116 347.184 224.816 347.07 225.53L348.58 226.37C348.58 226.62 348.58 226.88 348.58 227.14C348.58 227.4 348.58 227.66 348.58 227.91L347.07 228.75C347.184 229.464 347.372 230.164 347.63 230.84H349.36C349.571 231.311 349.829 231.76 350.13 232.18L349.24 233.66C349.699 234.219 350.211 234.731 350.77 235.19L352.25 234.3C352.67 234.601 353.119 234.859 353.59 235.07V236.8C354.265 237.058 354.966 237.245 355.68 237.36L356.52 235.85C356.77 235.85 357.03 235.85 357.29 235.85C357.55 235.85 357.81 235.85 358.06 235.85L358.9 237.36C359.614 237.245 360.314 237.058 360.99 236.8V235.07C361.461 234.859 361.91 234.601 362.33 234.3L363.8 235.19C364.364 234.734 364.88 234.221 365.34 233.66L364.45 232.18C364.747 231.758 365.005 231.309 365.22 230.84H366.95C367.203 230.163 367.391 229.463 367.51 228.75L366 227.91C366 227.66 366 227.4 366 227.14ZM357.29 233.06C356.119 233.06 354.974 232.713 354.001 232.062C353.027 231.412 352.269 230.487 351.82 229.406C351.372 228.324 351.255 227.133 351.484 225.985C351.712 224.837 352.276 223.782 353.104 222.954C353.932 222.126 354.987 221.562 356.135 221.334C357.283 221.105 358.474 221.223 359.555 221.671C360.637 222.119 361.562 222.878 362.212 223.851C362.863 224.825 363.21 225.969 363.21 227.14C363.21 227.921 363.055 228.694 362.755 229.415C362.455 230.136 362.016 230.79 361.462 231.34C360.908 231.891 360.25 232.326 359.528 232.621C358.805 232.916 358.031 233.065 357.25 233.06H357.29Z" fill="#F0F0F0"/>
    <path d="M354.62 248.51C354.62 248.12 354.62 247.74 354.57 247.36L356.82 246.1C356.658 245.04 356.383 244.001 356 243L353.43 243.05C353.1 242.352 352.712 241.683 352.27 241.05L353.6 238.84C352.918 237.996 352.147 237.228 351.3 236.55L349.09 237.87C348.458 237.428 347.789 237.043 347.09 236.72V234.14C346.079 233.752 345.03 233.47 343.96 233.3L342.71 235.56C341.942 235.48 341.168 235.48 340.4 235.56L339.15 233.3C338.08 233.47 337.031 233.752 336.02 234.14V236.72C335.32 237.043 334.651 237.428 334.02 237.87L331.8 236.55C330.958 237.231 330.191 237.999 329.51 238.84L330.84 241.05C330.397 241.683 330.009 242.352 329.68 243.05L327.1 243C326.713 244.012 326.431 245.061 326.26 246.13L328.52 247.39C328.52 247.77 328.47 248.15 328.47 248.54C328.47 248.93 328.47 249.31 328.52 249.69L326.26 250.95C326.431 252.02 326.713 253.068 327.1 254.08L329.68 254.03C330.007 254.729 330.395 255.399 330.84 256.03L329.51 258.24C330.191 259.081 330.958 259.849 331.8 260.53L334.02 259.21C334.649 259.655 335.318 260.04 336.02 260.36V262.94C337.031 263.329 338.08 263.61 339.15 263.78L340.4 261.52C341.168 261.6 341.942 261.6 342.71 261.52L343.96 263.78C345.03 263.61 346.079 263.329 347.09 262.94V260.36C347.791 260.04 348.461 259.655 349.09 259.21L351.3 260.53C352.147 259.852 352.918 259.084 353.6 258.24L352.25 256C352.694 255.369 353.082 254.699 353.41 254L355.98 254.05C356.372 253.04 356.653 251.991 356.82 250.92L354.57 249.66C354.6 249.28 354.62 248.9 354.62 248.51ZM341.62 253.65C340.603 253.65 339.609 253.349 338.764 252.784C337.919 252.219 337.26 251.416 336.871 250.477C336.482 249.538 336.38 248.504 336.579 247.507C336.777 246.51 337.266 245.594 337.985 244.876C338.704 244.157 339.62 243.667 340.617 243.469C341.614 243.27 342.648 243.372 343.587 243.761C344.526 244.15 345.329 244.809 345.894 245.654C346.458 246.5 346.76 247.493 346.76 248.51C346.76 249.188 346.626 249.86 346.365 250.486C346.104 251.113 345.722 251.681 345.24 252.159C344.759 252.637 344.187 253.014 343.559 253.27C342.931 253.526 342.258 253.655 341.58 253.65H341.62Z" fill="#F0F0F0"/>
    <path d="M152.16 208.87H140.38C139.373 208.87 138.377 209.068 137.447 209.454C136.517 209.84 135.672 210.405 134.96 211.117C134.249 211.829 133.685 212.675 133.3 213.606C132.916 214.536 132.719 215.533 132.72 216.54V228.31C132.72 230.342 133.527 232.292 134.963 233.73C136.399 235.168 138.348 235.977 140.38 235.98H152.16C154.193 235.977 156.141 235.168 157.577 233.73C159.014 232.292 159.82 230.342 159.82 228.31V216.54C159.822 215.533 159.624 214.536 159.24 213.606C158.856 212.675 158.292 211.829 157.58 211.117C156.869 210.405 156.024 209.84 155.094 209.454C154.164 209.068 153.167 208.87 152.16 208.87ZM146.27 230.87C146.27 230.87 139.9 223.93 139.9 220.41C139.9 218.721 140.571 217.1 141.766 215.906C142.961 214.711 144.581 214.04 146.27 214.04C147.96 214.04 149.58 214.711 150.774 215.906C151.969 217.1 152.64 218.721 152.64 220.41C152.64 223.9 146.27 230.84 146.27 230.84V230.87Z" fill="#F0F0F0"/>
    <path d="M146.27 217.48C145.694 217.48 145.131 217.651 144.652 217.971C144.173 218.291 143.8 218.746 143.58 219.279C143.36 219.811 143.303 220.397 143.417 220.961C143.53 221.526 143.808 222.045 144.216 222.451C144.624 222.858 145.143 223.134 145.708 223.245C146.273 223.356 146.859 223.297 147.39 223.076C147.922 222.854 148.376 222.479 148.694 221.999C149.013 221.52 149.182 220.956 149.18 220.38C149.18 219.998 149.105 219.62 148.958 219.268C148.812 218.915 148.597 218.595 148.327 218.326C148.057 218.056 147.736 217.843 147.383 217.698C147.03 217.553 146.652 217.479 146.27 217.48Z" fill="#F0F0F0"/>
    <path d="M390 121H377.57C376.641 120.999 375.721 121.181 374.862 121.535C374.003 121.89 373.222 122.411 372.565 123.067C371.907 123.724 371.385 124.504 371.029 125.362C370.673 126.221 370.49 127.141 370.49 128.07V140.51C370.49 141.439 370.673 142.359 371.029 143.218C371.385 144.076 371.907 144.856 372.565 145.513C373.222 146.169 374.003 146.69 374.862 147.045C375.721 147.399 376.641 147.581 377.57 147.58H390C390.929 147.581 391.849 147.399 392.707 147.045C393.566 146.69 394.346 146.169 395.002 145.512C395.659 144.855 396.18 144.076 396.535 143.217C396.89 142.359 397.072 141.439 397.07 140.51V128C397.054 126.136 396.302 124.354 394.978 123.043C393.653 121.732 391.864 120.997 390 121ZM391.66 130.09C391.334 130.503 390.954 130.869 390.53 131.18C390.513 131.187 390.498 131.199 390.489 131.216C390.48 131.232 390.477 131.252 390.48 131.27C390.494 131.735 390.467 132.2 390.4 132.66C390.297 133.625 390.041 134.566 389.64 135.45C389.228 136.349 388.675 137.176 388 137.9C386.844 139.119 385.344 139.956 383.7 140.3C383.122 140.428 382.532 140.502 381.94 140.52C380.177 140.56 378.44 140.088 376.94 139.16H376.86C378.514 139.329 380.172 138.876 381.51 137.89C380.854 137.874 380.219 137.657 379.691 137.266C379.163 136.876 378.768 136.333 378.56 135.71C379.005 135.805 379.465 135.805 379.91 135.71C379.486 135.621 379.085 135.446 378.731 135.197C378.377 134.948 378.077 134.629 377.85 134.26C377.537 133.763 377.371 133.188 377.37 132.6C377.793 132.827 378.261 132.957 378.74 132.98C378.089 132.524 377.63 131.844 377.45 131.07C377.256 130.302 377.367 129.488 377.76 128.8C378.563 129.766 379.556 130.556 380.678 131.121C381.8 131.685 383.026 132.012 384.28 132.08C384.276 131.961 384.256 131.844 384.22 131.73C384.117 131.014 384.269 130.285 384.65 129.67C384.882 129.299 385.191 128.984 385.558 128.746C385.924 128.507 386.338 128.352 386.77 128.29C387.262 128.204 387.767 128.238 388.242 128.389C388.718 128.541 389.149 128.805 389.5 129.16C389.522 129.185 389.551 129.203 389.583 129.212C389.615 129.221 389.649 129.22 389.68 129.21C390.315 129.074 390.926 128.842 391.49 128.52C391.264 129.186 390.825 129.759 390.24 130.15C390.841 130.08 391.428 129.918 391.98 129.67L391.66 130.09Z" fill="#F0F0F0"/>
    <path d="M129.39 112.84H116.08C111.899 112.84 108.51 116.229 108.51 120.41V133.72C108.51 137.901 111.899 141.29 116.08 141.29H129.39C133.571 141.29 136.96 137.901 136.96 133.72V120.41C136.96 116.229 133.571 112.84 129.39 112.84Z" fill="#F0F0F0"/>
    <path d="M125.92 122.54V126.54C125.92 126.934 125.843 127.324 125.692 127.688C125.541 128.052 125.32 128.383 125.042 128.661C124.763 128.94 124.432 129.161 124.068 129.312C123.704 129.462 123.314 129.54 122.92 129.54H119.09L114.72 133.91V129.54C113.925 129.54 113.162 129.224 112.599 128.661C112.036 128.099 111.72 127.336 111.72 126.54V122.54C111.72 121.744 112.036 120.981 112.599 120.419C113.162 119.856 113.925 119.54 114.72 119.54H122.92C123.716 119.54 124.479 119.856 125.042 120.419C125.604 120.981 125.92 121.744 125.92 122.54Z" fill="white"/>
    <path d="M133.75 128.59V131.67C133.75 132.283 133.507 132.87 133.074 133.303C132.64 133.737 132.053 133.98 131.44 133.98V137.34L128.08 134H125.14C124.527 134 123.94 133.757 123.507 133.323C123.073 132.89 122.83 132.303 122.83 131.69V128.61C122.829 128.306 122.888 128.004 123.003 127.723C123.119 127.442 123.288 127.186 123.503 126.97C123.718 126.755 123.973 126.584 124.254 126.467C124.535 126.35 124.836 126.29 125.14 126.29H131.44C132.051 126.29 132.637 126.532 133.07 126.963C133.503 127.394 133.747 127.979 133.75 128.59Z" fill="white"/>
    <path d="M122.75 122.79H115.33C115.24 122.79 115.154 122.754 115.09 122.69C115.026 122.627 114.99 122.54 114.99 122.45C114.99 122.36 115.026 122.273 115.09 122.21C115.154 122.146 115.24 122.11 115.33 122.11H122.75C122.84 122.11 122.927 122.146 122.991 122.21C123.054 122.273 123.09 122.36 123.09 122.45C123.09 122.54 123.054 122.627 122.991 122.69C122.927 122.754 122.84 122.79 122.75 122.79Z" fill="#EBEBEB"/>
    <path d="M122.75 124.52H115.33C115.24 124.52 115.154 124.484 115.09 124.42C115.026 124.357 114.99 124.27 114.99 124.18C114.99 124.09 115.026 124.003 115.09 123.94C115.154 123.876 115.24 123.84 115.33 123.84H122.75C122.84 123.84 122.927 123.876 122.991 123.94C123.054 124.003 123.09 124.09 123.09 124.18C123.09 124.27 123.054 124.357 122.991 124.42C122.927 124.484 122.84 124.52 122.75 124.52Z" fill="#EBEBEB"/>
    <path d="M120.68 126.25H115.33C115.24 126.25 115.154 126.214 115.09 126.15C115.026 126.087 114.99 126 114.99 125.91C114.99 125.82 115.026 125.733 115.09 125.67C115.154 125.606 115.24 125.57 115.33 125.57H120.68C120.77 125.57 120.857 125.606 120.921 125.67C120.984 125.733 121.02 125.82 121.02 125.91C121.02 126 120.984 126.087 120.921 126.15C120.857 126.214 120.77 126.25 120.68 126.25Z" fill="#EBEBEB"/>
    <path d="M250 423.71C357.082 423.71 443.89 418.642 443.89 412.39C443.89 406.138 357.082 401.07 250 401.07C142.917 401.07 56.1099 406.138 56.1099 412.39C56.1099 418.642 142.917 423.71 250 423.71Z" fill="#F5F5F5"/>
    <path d="M295.9 175.59H294.9V164.86C294.897 162.794 294.076 160.813 292.616 159.351C291.156 157.889 289.176 157.065 287.11 157.06H267.36C265.027 157.057 262.79 156.129 261.14 154.48C259.491 152.83 258.563 150.593 258.56 148.26V140H259.56V148.28C259.563 150.348 260.385 152.33 261.848 153.793C263.31 155.255 265.292 156.077 267.36 156.08H287.11C289.442 156.083 291.678 157.011 293.326 158.661C294.974 160.311 295.9 162.548 295.9 164.88V175.59Z" fill="black"/>
    <path d="M303 175.8H290C288.74 175.8 287.53 176.3 286.638 177.191C285.746 178.081 285.243 179.289 285.24 180.55V193.55C285.243 194.811 285.746 196.019 286.638 196.909C287.53 197.8 288.74 198.3 290 198.3H303C304.261 198.3 305.47 197.8 306.363 196.909C307.255 196.019 307.758 194.811 307.76 193.55V180.55C307.758 179.289 307.255 178.081 306.363 177.191C305.47 176.3 304.261 175.8 303 175.8Z" fill="#407BFF"/>
    <g opacity="0.4">
        <path d="M303 175.8H290C288.74 175.8 287.53 176.3 286.638 177.191C285.746 178.081 285.243 179.289 285.24 180.55V193.55C285.243 194.811 285.746 196.019 286.638 196.909C287.53 197.8 288.74 198.3 290 198.3H303C304.261 198.3 305.47 197.8 306.363 196.909C307.255 196.019 307.758 194.811 307.76 193.55V180.55C307.758 179.289 307.255 178.081 306.363 177.191C305.47 176.3 304.261 175.8 303 175.8Z" fill="white"/>
    </g>
    <path d="M296.4 177.92C294.631 177.918 292.901 178.441 291.43 179.423C289.958 180.404 288.811 181.8 288.133 183.434C287.455 185.068 287.277 186.867 287.621 188.602C287.966 190.337 288.818 191.931 290.069 193.182C291.32 194.432 292.913 195.284 294.649 195.629C296.384 195.973 298.182 195.796 299.816 195.118C301.45 194.44 302.846 193.292 303.828 191.821C304.809 190.349 305.332 188.619 305.33 186.85C305.325 184.483 304.382 182.215 302.709 180.541C301.035 178.868 298.767 177.925 296.4 177.92ZM294.98 178.92C294.111 179.786 293.406 180.802 292.9 181.92H290.07C291.285 180.345 293.042 179.279 295 178.93L294.98 178.92ZM289.46 182.76H292.52C292.078 183.907 291.812 185.114 291.73 186.34V186.55H288.38C288.426 185.221 288.796 183.923 289.46 182.77V182.76ZM289.64 191.21C288.907 190.076 288.471 188.776 288.37 187.43H291.75C291.88 188.735 292.217 190.011 292.75 191.21H289.64ZM290.3 192.09H293.17C293.718 193.124 294.45 194.049 295.33 194.82C293.376 194.564 291.584 193.595 290.3 192.1V192.09ZM295.96 194.2C295.261 193.596 294.663 192.884 294.19 192.09H296L295.96 194.2ZM295.96 191.2H293.71C293.139 190.011 292.777 188.732 292.64 187.42H296L295.96 191.2ZM295.96 186.54H292.61C292.668 185.236 292.96 183.952 293.47 182.75H296L295.96 186.54ZM295.96 181.87H293.88C294.395 180.86 295.101 179.96 295.96 179.22V181.87ZM304.45 186.54H301.09V186.33C301.013 185.103 300.747 183.895 300.3 182.75H303.36C304.037 183.909 304.412 185.219 304.45 186.56V186.54ZM302.73 181.87H299.91C299.397 180.754 298.689 179.738 297.82 178.87C299.775 179.232 301.526 180.308 302.73 181.89V181.87ZM296.84 179.23C297.701 179.964 298.408 180.861 298.92 181.87H296.84V179.23ZM296.84 182.75H299.33C299.843 183.952 300.138 185.235 300.2 186.54H296.84V182.75ZM296.84 187.42H300.16C300.028 188.733 299.666 190.013 299.09 191.2H296.84V187.42ZM296.84 194.19V192.1H298.61C298.143 192.898 297.545 193.612 296.84 194.21V194.19ZM297.47 194.81C298.351 194.039 299.083 193.114 299.63 192.08H302.5C301.221 193.587 299.429 194.566 297.47 194.83V194.81ZM303.16 191.2H300.06C300.593 190.001 300.931 188.725 301.06 187.42H304.44C304.343 188.775 303.903 190.083 303.16 191.22V191.2Z" fill="white"/>
    <path d="M336.25 159H335.25V148.27C335.25 146.204 334.429 144.223 332.968 142.762C331.508 141.301 329.526 140.48 327.46 140.48H280.33V139.48H327.46C329.791 139.483 332.025 140.41 333.673 142.057C335.321 143.705 336.247 145.94 336.25 148.27V159Z" fill="black"/>
    <path d="M339.48 151.22H326.48C325.22 151.22 324.01 151.72 323.118 152.611C322.226 153.501 321.723 154.709 321.72 155.97V168.97C321.723 170.231 322.226 171.439 323.118 172.329C324.01 173.22 325.22 173.72 326.48 173.72H339.48C340.741 173.72 341.95 173.22 342.842 172.329C343.735 171.439 344.238 170.231 344.24 168.97V156C344.243 155.373 344.122 154.752 343.884 154.172C343.646 153.592 343.295 153.065 342.853 152.621C342.411 152.177 341.885 151.825 341.306 151.584C340.728 151.344 340.107 151.22 339.48 151.22Z" fill="#407BFF"/>
    <g opacity="0.4">
        <path d="M339.48 151.22H326.48C325.22 151.22 324.01 151.72 323.118 152.611C322.226 153.501 321.723 154.709 321.72 155.97V168.97C321.723 170.231 322.226 171.439 323.118 172.329C324.01 173.22 325.22 173.72 326.48 173.72H339.48C340.741 173.72 341.95 173.22 342.842 172.329C343.735 171.439 344.238 170.231 344.24 168.97V156C344.243 155.373 344.122 154.752 343.884 154.172C343.646 153.592 343.295 153.065 342.853 152.621C342.411 152.177 341.885 151.825 341.306 151.584C340.728 151.344 340.107 151.22 339.48 151.22Z" fill="white"/>
    </g>
    <path opacity="0.9" d="M334.5 156.26C333.767 155.526 332.84 155.017 331.827 154.791C330.815 154.565 329.759 154.632 328.783 154.985C327.808 155.337 326.953 155.96 326.318 156.781C325.684 157.602 325.296 158.586 325.201 159.619C325.106 160.652 325.307 161.691 325.781 162.614C326.255 163.536 326.982 164.305 327.876 164.83C328.771 165.355 329.797 165.613 330.834 165.576C331.87 165.539 332.875 165.207 333.73 164.62C333.771 164.87 333.89 165.101 334.07 165.28L337.46 168.67C337.574 168.784 337.709 168.874 337.857 168.935C338.005 168.997 338.164 169.028 338.325 169.028C338.486 169.028 338.645 168.997 338.793 168.935C338.942 168.874 339.076 168.784 339.19 168.67C339.304 168.556 339.394 168.422 339.455 168.273C339.517 168.125 339.548 167.966 339.548 167.805C339.548 167.644 339.517 167.485 339.455 167.337C339.394 167.188 339.304 167.054 339.19 166.94L335.8 163.55C335.619 163.368 335.384 163.249 335.13 163.21C335.853 162.16 336.185 160.891 336.07 159.621C335.955 158.352 335.4 157.163 334.5 156.26ZM333.34 162.82C332.805 163.357 332.122 163.722 331.379 163.871C330.636 164.019 329.865 163.944 329.165 163.654C328.465 163.365 327.866 162.874 327.445 162.244C327.023 161.614 326.799 160.873 326.799 160.115C326.799 159.357 327.023 158.616 327.445 157.986C327.866 157.356 328.465 156.865 329.165 156.576C329.865 156.286 330.636 156.211 331.379 156.359C332.122 156.508 332.805 156.873 333.34 157.41C333.696 157.765 333.978 158.186 334.171 158.651C334.364 159.115 334.463 159.612 334.463 160.115C334.463 160.618 334.364 161.115 334.171 161.579C333.978 162.044 333.696 162.465 333.34 162.82Z" fill="white"/>
    <path d="M339.53 122.44H279.21V123.44H339.53V122.44Z" fill="black"/>
    <path d="M349.07 105.28H336.12C335.496 105.28 334.877 105.403 334.3 105.643C333.723 105.882 333.199 106.233 332.758 106.675C332.317 107.117 331.967 107.642 331.729 108.219C331.491 108.797 331.369 109.415 331.37 110.04V123C331.369 123.625 331.491 124.243 331.729 124.821C331.967 125.398 332.317 125.923 332.758 126.365C333.199 126.807 333.723 127.158 334.3 127.398C334.877 127.637 335.496 127.76 336.12 127.76H349.07C350.333 127.76 351.543 127.259 352.436 126.366C353.329 125.473 353.83 124.262 353.83 123V110C353.82 108.745 353.313 107.544 352.422 106.66C351.53 105.776 350.326 105.28 349.07 105.28Z" fill="#407BFF"/>
    <g opacity="0.4">
        <path d="M349.07 105.28H336.12C335.496 105.28 334.877 105.403 334.3 105.643C333.723 105.882 333.199 106.233 332.758 106.675C332.317 107.117 331.967 107.642 331.729 108.219C331.491 108.797 331.369 109.415 331.37 110.04V123C331.369 123.625 331.491 124.243 331.729 124.821C331.967 125.398 332.317 125.923 332.758 126.365C333.199 126.807 333.723 127.158 334.3 127.398C334.877 127.637 335.496 127.76 336.12 127.76H349.07C350.333 127.76 351.543 127.259 352.436 126.366C353.329 125.473 353.83 124.262 353.83 123V110C353.82 108.745 353.313 107.544 352.422 106.66C351.53 105.776 350.326 105.28 349.07 105.28Z" fill="white"/>
    </g>
    <g opacity="0.5">
        <path d="M339.44 122.94C339.44 123.274 339.341 123.601 339.155 123.879C338.97 124.157 338.706 124.373 338.397 124.501C338.088 124.629 337.748 124.663 337.42 124.598C337.093 124.532 336.791 124.371 336.555 124.135C336.319 123.899 336.158 123.598 336.093 123.27C336.027 122.942 336.061 122.602 336.189 122.293C336.317 121.984 336.533 121.721 336.811 121.535C337.089 121.349 337.416 121.25 337.75 121.25C337.972 121.249 338.193 121.292 338.398 121.376C338.604 121.46 338.791 121.585 338.948 121.742C339.105 121.899 339.23 122.086 339.314 122.292C339.399 122.497 339.441 122.718 339.44 122.94Z" fill="white"/>
        <path d="M346 122.94C346 123.274 345.901 123.601 345.715 123.879C345.53 124.157 345.266 124.373 344.957 124.501C344.648 124.629 344.308 124.663 343.98 124.598C343.653 124.532 343.351 124.371 343.115 124.135C342.879 123.899 342.718 123.598 342.653 123.27C342.587 122.942 342.621 122.602 342.749 122.293C342.877 121.984 343.093 121.721 343.371 121.535C343.649 121.349 343.976 121.25 344.31 121.25C344.532 121.249 344.753 121.292 344.958 121.376C345.164 121.46 345.351 121.585 345.508 121.742C345.665 121.899 345.79 122.086 345.874 122.292C345.959 122.497 346.001 122.718 346 122.94Z" fill="white"/>
    </g>
    <path d="M345.72 120.39H335.9C335.804 120.388 335.711 120.357 335.634 120.299C335.557 120.242 335.499 120.162 335.47 120.07L333.41 113.24C333.389 113.173 333.384 113.101 333.396 113.031C333.408 112.962 333.437 112.896 333.48 112.84C333.522 112.784 333.576 112.739 333.639 112.708C333.701 112.676 333.77 112.66 333.84 112.66H347.78C347.851 112.66 347.922 112.676 347.986 112.707C348.05 112.739 348.106 112.784 348.15 112.84C348.191 112.897 348.218 112.963 348.231 113.032C348.243 113.101 348.239 113.172 348.22 113.24L346.15 120.07C346.122 120.162 346.065 120.243 345.988 120.301C345.911 120.359 345.817 120.39 345.72 120.39ZM336.24 119.49H345.39L347.18 113.56H334.44L336.24 119.49Z" fill="white"/>
    <path d="M347.78 113.56H347.66C347.602 113.544 347.549 113.517 347.502 113.48C347.456 113.443 347.417 113.397 347.388 113.345C347.359 113.293 347.341 113.235 347.334 113.176C347.328 113.117 347.333 113.057 347.35 113L348.14 110.25C348.244 109.89 348.462 109.573 348.761 109.348C349.061 109.123 349.425 109 349.8 109H351.36C351.479 109 351.594 109.047 351.678 109.132C351.762 109.216 351.81 109.331 351.81 109.45C351.81 109.569 351.762 109.684 351.678 109.768C351.594 109.853 351.479 109.9 351.36 109.9H349.8C349.621 109.902 349.448 109.961 349.305 110.069C349.163 110.177 349.059 110.328 349.01 110.5L348.22 113.25C348.188 113.341 348.129 113.42 348.05 113.476C347.971 113.532 347.876 113.561 347.78 113.56Z" fill="white"/>
    <path d="M297 109.08H277.38V108.08H297C299.066 108.08 301.047 107.259 302.508 105.798C303.969 104.338 304.79 102.356 304.79 100.29V89.5601H305.79V100.29C305.787 102.621 304.86 104.855 303.212 106.503C301.565 108.15 299.33 109.077 297 109.08Z" fill="black"/>
    <path d="M312.21 72.4301H298.45C296.02 72.4301 294.05 74.4 294.05 76.8301V90.59C294.05 93.0201 296.02 94.9901 298.45 94.9901H312.21C314.64 94.9901 316.61 93.0201 316.61 90.59V76.8301C316.61 74.4 314.64 72.4301 312.21 72.4301Z" fill="#407BFF"/>
    <g opacity="0.4">
        <path d="M312.21 72.4301H298.45C296.02 72.4301 294.05 74.4 294.05 76.8301V90.59C294.05 93.0201 296.02 94.9901 298.45 94.9901H312.21C314.64 94.9901 316.61 93.0201 316.61 90.59V76.8301C316.61 74.4 314.64 72.4301 312.21 72.4301Z" fill="white"/>
    </g>
    <path d="M313.88 86.0701C313.88 86.3101 313.88 87.1601 313.83 87.4001H306.12V83.7201H307.17L305 81.5401L302.82 83.7201H303.87V87.4001H296.63C296.63 87.2801 296.63 86.5401 296.63 86.4001C296.63 85.4382 296.989 84.5109 297.636 83.7991C298.283 83.0874 299.172 82.6421 300.13 82.5501V82.4001C300.121 81.3126 300.503 80.2582 301.207 79.4286C301.91 78.5991 302.888 78.0495 303.962 77.88C305.036 77.7104 306.136 77.9321 307.06 78.5047C307.985 79.0774 308.673 79.9628 309 81.0001C309.272 81.0059 309.542 81.0327 309.81 81.0801C310.967 81.2991 312.01 81.9198 312.755 82.8327C313.5 83.7456 313.898 84.8922 313.88 86.0701Z" fill="white"/>
    <path d="M251.65 83.46H250.65V104.01H251.65V83.46Z" fill="black"/>
    <path d="M257.63 63.86H244.68C243.417 63.86 242.207 64.3615 241.314 65.2542C240.421 66.1468 239.92 67.3576 239.92 68.62V81.57C239.92 82.8324 240.421 84.0431 241.314 84.9358C242.207 85.8285 243.417 86.33 244.68 86.33H257.63C258.255 86.33 258.873 86.2068 259.45 85.9675C260.027 85.7281 260.551 85.3773 260.992 84.9352C261.433 84.4931 261.783 83.9683 262.021 83.3908C262.259 82.8133 262.381 82.1946 262.38 81.57V68.62C262.381 67.9954 262.259 67.3766 262.021 66.7992C261.783 66.2217 261.433 65.6969 260.992 65.2548C260.551 64.8126 260.027 64.4618 259.45 64.2225C258.873 63.9832 258.255 63.86 257.63 63.86Z" fill="#407BFF"/>
    <g opacity="0.4">
        <path d="M257.63 63.86H244.68C243.417 63.86 242.207 64.3615 241.314 65.2542C240.421 66.1468 239.92 67.3576 239.92 68.62V81.57C239.92 82.8324 240.421 84.0431 241.314 84.9358C242.207 85.8285 243.417 86.33 244.68 86.33H257.63C258.255 86.33 258.873 86.2068 259.45 85.9675C260.027 85.7281 260.551 85.3773 260.992 84.9352C261.433 84.4931 261.783 83.9683 262.021 83.3908C262.259 82.8133 262.381 82.1946 262.38 81.57V68.62C262.381 67.9954 262.259 67.3766 262.021 66.7992C261.783 66.2217 261.433 65.6969 260.992 65.2548C260.551 64.8126 260.027 64.4618 259.45 64.2225C258.873 63.9832 258.255 63.86 257.63 63.86Z" fill="white"/>
    </g>
    <path d="M253.23 76.57C253.23 76.42 253.23 76.27 253.23 76.13L254.14 75.77C254.132 75.3553 254.079 74.9428 253.98 74.54L252.98 74.43C252.895 74.1504 252.785 73.8792 252.65 73.62L253.26 72.85C253.043 72.4934 252.791 72.1585 252.51 71.85L251.61 72.24C251.392 72.0405 251.158 71.8598 250.91 71.7L251.05 70.7C250.69 70.4958 250.307 70.3347 249.91 70.22L249.33 71.01L249 71H248.57L248.2 70.08C247.789 70.0932 247.38 70.1467 246.98 70.24L246.87 71.24C246.586 71.3263 246.312 71.4402 246.05 71.58L245.28 70.96C244.921 71.1776 244.586 71.4323 244.28 71.72L244.67 72.62C244.474 72.8384 244.297 73.0725 244.14 73.32L243.14 73.17C242.947 73.5338 242.789 73.9156 242.67 74.31L243.46 74.9C243.46 75.04 243.4 75.18 243.38 75.33C243.37 75.4765 243.37 75.6235 243.38 75.77L242.46 76.13C242.468 76.5446 242.521 76.9571 242.62 77.36L243.62 77.47C243.709 77.748 243.819 78.0188 243.95 78.28L243.34 79.05C243.557 79.4065 243.809 79.7414 244.09 80.05L245 79.66C245.212 79.8616 245.443 80.0425 245.69 80.2L245.55 81.2C245.911 81.3991 246.293 81.5568 246.69 81.67L247.27 80.88L247.71 80.96H248.15L248.51 81.87C248.921 81.8623 249.331 81.8087 249.73 81.71L249.84 80.71C250.124 80.6236 250.398 80.5097 250.66 80.37L251.43 80.98C251.791 80.7694 252.127 80.5177 252.43 80.23L252.04 79.33C252.236 79.1121 252.414 78.8779 252.57 78.63L253.57 78.78C253.763 78.4161 253.921 78.0343 254.04 77.64L253.25 77.05C253.18 76.86 253.21 76.71 253.23 76.57ZM248 77.86C247.604 77.8156 247.23 77.6538 246.926 77.3954C246.622 77.1369 246.403 76.7935 246.296 76.4093C246.189 76.0252 246.199 75.6178 246.325 75.2395C246.451 74.8612 246.688 74.5292 247.004 74.2863C247.32 74.0433 247.702 73.9005 248.1 73.8761C248.498 73.8517 248.894 73.9468 249.238 74.1493C249.581 74.3518 249.856 74.6524 250.028 75.0124C250.199 75.3725 250.259 75.7756 250.2 76.17C250.123 76.6815 249.851 77.1433 249.441 77.4584C249.03 77.7735 248.514 77.9174 248 77.86Z" fill="#407BFF"/>
    <path d="M253.23 76.57C253.23 76.42 253.23 76.27 253.23 76.13L254.14 75.77C254.132 75.3553 254.079 74.9428 253.98 74.54L252.98 74.43C252.895 74.1504 252.785 73.8792 252.65 73.62L253.26 72.85C253.043 72.4934 252.791 72.1585 252.51 71.85L251.61 72.24C251.392 72.0405 251.158 71.8598 250.91 71.7L251.05 70.7C250.69 70.4958 250.307 70.3347 249.91 70.22L249.33 71.01L249 71H248.57L248.2 70.08C247.789 70.0932 247.38 70.1467 246.98 70.24L246.87 71.24C246.586 71.3263 246.312 71.4402 246.05 71.58L245.28 70.96C244.921 71.1776 244.586 71.4323 244.28 71.72L244.67 72.62C244.474 72.8384 244.297 73.0725 244.14 73.32L243.14 73.17C242.947 73.5338 242.789 73.9156 242.67 74.31L243.46 74.9C243.46 75.04 243.4 75.18 243.38 75.33C243.37 75.4765 243.37 75.6235 243.38 75.77L242.46 76.13C242.468 76.5446 242.521 76.9571 242.62 77.36L243.62 77.47C243.709 77.748 243.819 78.0188 243.95 78.28L243.34 79.05C243.557 79.4065 243.809 79.7414 244.09 80.05L245 79.66C245.212 79.8616 245.443 80.0425 245.69 80.2L245.55 81.2C245.911 81.3991 246.293 81.5568 246.69 81.67L247.27 80.88L247.71 80.96H248.15L248.51 81.87C248.921 81.8623 249.331 81.8087 249.73 81.71L249.84 80.71C250.124 80.6236 250.398 80.5097 250.66 80.37L251.43 80.98C251.791 80.7694 252.127 80.5177 252.43 80.23L252.04 79.33C252.236 79.1121 252.414 78.8779 252.57 78.63L253.57 78.78C253.763 78.4161 253.921 78.0343 254.04 77.64L253.25 77.05C253.18 76.86 253.21 76.71 253.23 76.57ZM248 77.86C247.604 77.8156 247.23 77.6538 246.926 77.3954C246.622 77.1369 246.403 76.7935 246.296 76.4093C246.189 76.0252 246.199 75.6178 246.325 75.2395C246.451 74.8612 246.688 74.5292 247.004 74.2863C247.32 74.0433 247.702 73.9005 248.1 73.8761C248.498 73.8517 248.894 73.9468 249.238 74.1493C249.581 74.3518 249.856 74.6524 250.028 75.0124C250.199 75.3725 250.259 75.7756 250.2 76.17C250.123 76.6815 249.851 77.1433 249.441 77.4584C249.03 77.7735 248.514 77.9174 248 77.86Z" fill="white"/>
    <g opacity="0.5">
        <path d="M257.33 73.52C256.757 73.5218 256.2 73.3306 255.749 72.9771C255.297 72.6236 254.979 72.1284 254.843 71.5715C254.708 71.0145 254.765 70.4283 255.003 69.9073C255.242 69.3864 255.65 68.961 256.16 68.7V70.31C256.163 70.6218 256.289 70.9198 256.51 71.14C256.727 71.3575 257.022 71.4798 257.33 71.48C257.64 71.48 257.938 71.3567 258.157 71.1373C258.377 70.9179 258.5 70.6203 258.5 70.31V68.7C259.01 68.961 259.417 69.3864 259.656 69.9073C259.895 70.4283 259.951 71.0145 259.816 71.5715C259.681 72.1284 259.362 72.6236 258.911 72.9771C258.46 73.3306 257.903 73.5218 257.33 73.52Z" fill="white"/>
        <path d="M256.17 79.8899V72.8099C256.169 72.6567 256.198 72.5048 256.255 72.3629C256.313 72.221 256.398 72.092 256.506 71.9832C256.614 71.8744 256.742 71.7881 256.884 71.7291C257.025 71.6702 257.177 71.6399 257.33 71.6399C257.483 71.6399 257.635 71.6702 257.776 71.7291C257.918 71.7881 258.046 71.8744 258.154 71.9832C258.262 72.092 258.347 72.221 258.405 72.3629C258.462 72.5048 258.491 72.6567 258.49 72.8099V79.8899C258.49 80.0422 258.46 80.1931 258.402 80.3338C258.343 80.4745 258.258 80.6024 258.15 80.7101C258.042 80.8179 257.915 80.9033 257.774 80.9616C257.633 81.0199 257.482 81.0499 257.33 81.0499C257.178 81.0499 257.027 81.0199 256.886 80.9616C256.745 80.9033 256.617 80.8179 256.51 80.7101C256.402 80.6024 256.317 80.4745 256.258 80.3338C256.2 80.1931 256.17 80.0422 256.17 79.8899Z" fill="white"/>
    </g>
    <path d="M207.79 175.59H206.79V164.86C206.792 162.527 207.72 160.29 209.37 158.64C211.02 156.991 213.256 156.063 215.59 156.06H235.33C237.397 156.057 239.38 155.235 240.842 153.773C242.304 152.31 243.127 150.328 243.13 148.26V140H244.13V148.28C244.127 150.613 243.199 152.85 241.549 154.5C239.899 156.149 237.663 157.077 235.33 157.08H215.59C213.522 157.083 211.539 157.905 210.077 159.367C208.615 160.83 207.792 162.812 207.79 164.88V175.59Z" fill="black"/>
    <path d="M213.27 174.33H200.27C199.007 174.33 197.797 174.831 196.904 175.724C196.011 176.617 195.51 177.828 195.51 179.09V192C195.51 192.625 195.633 193.243 195.872 193.82C196.112 194.397 196.462 194.921 196.905 195.362C197.347 195.803 197.872 196.153 198.449 196.391C199.026 196.629 199.645 196.751 200.27 196.75H213.27C214.526 196.745 215.729 196.242 216.616 195.352C217.502 194.461 218 193.256 218 192V179.09C218 177.833 217.502 176.627 216.616 175.735C215.73 174.843 214.527 174.338 213.27 174.33Z" fill="#407BFF"/>
    <g opacity="0.4">
        <path d="M213.27 174.33H200.27C199.007 174.33 197.797 174.831 196.904 175.724C196.011 176.617 195.51 177.828 195.51 179.09V192C195.51 192.625 195.633 193.243 195.872 193.82C196.112 194.397 196.462 194.921 196.905 195.362C197.347 195.803 197.872 196.153 198.449 196.391C199.026 196.629 199.645 196.751 200.27 196.75H213.27C214.526 196.745 215.729 196.242 216.616 195.352C217.502 194.461 218 193.256 218 192V179.09C218 177.833 217.502 176.627 216.616 175.735C215.73 174.843 214.527 174.338 213.27 174.33Z" fill="white"/>
    </g>
    <path d="M214.85 190.94C214.85 191.227 214.765 191.507 214.605 191.746C214.446 191.984 214.22 192.17 213.955 192.28C213.69 192.389 213.398 192.418 213.117 192.362C212.836 192.306 212.577 192.168 212.374 191.965C212.172 191.763 212.034 191.504 211.978 191.223C211.922 190.942 211.95 190.65 212.06 190.385C212.17 190.12 212.356 189.894 212.594 189.734C212.833 189.575 213.113 189.49 213.4 189.49C213.784 189.49 214.153 189.643 214.425 189.915C214.697 190.187 214.85 190.555 214.85 190.94Z" fill="white"/>
    <path d="M208.43 190.94C208.43 191.227 208.345 191.507 208.185 191.746C208.026 191.984 207.8 192.17 207.535 192.28C207.27 192.389 206.978 192.418 206.697 192.362C206.416 192.306 206.157 192.168 205.954 191.965C205.752 191.763 205.614 191.504 205.558 191.223C205.502 190.942 205.53 190.65 205.64 190.385C205.75 190.12 205.936 189.894 206.174 189.734C206.413 189.575 206.693 189.49 206.98 189.49C207.364 189.49 207.733 189.643 208.005 189.915C208.277 190.187 208.43 190.555 208.43 190.94Z" fill="white"/>
    <path d="M202 190.94C202.002 191.229 201.918 191.512 201.758 191.754C201.599 191.995 201.372 192.184 201.105 192.296C200.839 192.408 200.545 192.438 200.261 192.383C199.977 192.328 199.716 192.19 199.511 191.986C199.306 191.782 199.166 191.522 199.108 191.239C199.051 190.955 199.08 190.661 199.19 190.394C199.3 190.126 199.487 189.898 199.727 189.737C199.968 189.576 200.25 189.49 200.54 189.49C200.731 189.489 200.92 189.525 201.098 189.598C201.275 189.67 201.436 189.776 201.571 189.911C201.707 190.046 201.815 190.206 201.888 190.383C201.962 190.559 202 190.749 202 190.94Z" fill="white"/>
    <path d="M213.73 193.84H200.16C199.412 193.84 198.695 193.543 198.166 193.014C197.637 192.485 197.34 191.768 197.34 191.02V190.86C197.34 190.112 197.637 189.395 198.166 188.866C198.695 188.337 199.412 188.04 200.16 188.04H213.73C214.478 188.04 215.195 188.337 215.724 188.866C216.253 189.395 216.55 190.112 216.55 190.86V191C216.552 191.372 216.481 191.741 216.341 192.085C216.2 192.43 215.993 192.743 215.731 193.007C215.469 193.271 215.157 193.481 214.814 193.623C214.47 193.766 214.102 193.84 213.73 193.84ZM200.16 188.94C199.651 188.94 199.162 189.142 198.802 189.502C198.442 189.862 198.24 190.351 198.24 190.86V191C198.24 191.509 198.442 191.998 198.802 192.358C199.162 192.718 199.651 192.92 200.16 192.92H213.73C214.239 192.92 214.727 192.718 215.087 192.358C215.448 191.998 215.65 191.509 215.65 191V190.84C215.65 190.331 215.448 189.842 215.087 189.482C214.727 189.122 214.239 188.92 213.73 188.92L200.16 188.94Z" fill="white"/>
    <path d="M213.6 188.91C213.361 188.91 213.132 188.815 212.964 188.646C212.795 188.478 212.7 188.249 212.7 188.01V185.16L207 179.21L203.73 180.28C203.505 180.347 203.263 180.324 203.055 180.215C202.848 180.106 202.69 179.921 202.617 179.698C202.544 179.475 202.561 179.232 202.665 179.022C202.768 178.811 202.949 178.649 203.17 178.57L206.97 177.32C207.131 177.266 207.304 177.258 207.469 177.299C207.633 177.34 207.783 177.427 207.9 177.55L214.29 184.17C214.45 184.337 214.539 184.559 214.54 184.79V188C214.541 188.122 214.518 188.244 214.471 188.357C214.424 188.47 214.354 188.572 214.266 188.658C214.178 188.743 214.074 188.809 213.959 188.852C213.845 188.896 213.722 188.915 213.6 188.91Z" fill="white"/>
    <path d="M203.16 182.12C203.041 182.12 202.926 182.073 202.842 181.988C202.757 181.904 202.71 181.789 202.71 181.67V179.43C202.71 179.311 202.757 179.196 202.842 179.112C202.926 179.027 203.041 178.98 203.16 178.98C203.279 178.98 203.394 179.027 203.478 179.112C203.563 179.196 203.61 179.311 203.61 179.43V181.67C203.61 181.789 203.563 181.904 203.478 181.988C203.394 182.073 203.279 182.12 203.16 182.12Z" fill="white"/>
    <path d="M202.46 183.81C202.4 183.811 202.341 183.8 202.286 183.778C202.231 183.755 202.182 183.722 202.14 183.68C201.874 183.415 201.723 183.056 201.72 182.68C201.75 182.318 201.915 181.98 202.183 181.733C202.451 181.487 202.801 181.35 203.165 181.35C203.528 181.35 203.879 181.487 204.147 181.733C204.414 181.98 204.58 182.318 204.61 182.68C204.612 183.049 204.477 183.406 204.23 183.68C204.19 183.724 204.141 183.76 204.088 183.785C204.034 183.81 203.975 183.825 203.916 183.828C203.796 183.833 203.679 183.791 203.59 183.71C203.501 183.629 203.448 183.516 203.442 183.396C203.437 183.276 203.479 183.159 203.56 183.07C203.608 183.022 203.647 182.964 203.672 182.9C203.698 182.837 203.711 182.769 203.71 182.7C203.707 182.556 203.648 182.419 203.545 182.318C203.442 182.217 203.304 182.16 203.16 182.16C203.017 182.16 202.879 182.217 202.778 182.318C202.677 182.419 202.62 182.557 202.62 182.7C202.621 182.846 202.679 182.985 202.78 183.09C202.862 183.174 202.908 183.287 202.908 183.405C202.908 183.523 202.862 183.636 202.78 183.72C202.689 183.791 202.574 183.823 202.46 183.81Z" fill="white"/>
    <path d="M207.55 178.22C207.552 178.292 207.533 178.362 207.494 178.423C207.456 178.483 207.4 178.531 207.335 178.56C207.269 178.588 207.197 178.597 207.126 178.584C207.056 178.572 206.99 178.538 206.939 178.488C206.888 178.438 206.852 178.374 206.838 178.304C206.823 178.234 206.83 178.161 206.856 178.095C206.883 178.028 206.93 177.971 206.989 177.931C207.048 177.891 207.118 177.87 207.19 177.87C207.284 177.87 207.374 177.907 207.441 177.972C207.508 178.037 207.547 178.126 207.55 178.22Z" fill="#407BFF"/>
    <path d="M213.89 184.84C213.89 184.911 213.869 184.981 213.829 185.04C213.79 185.099 213.733 185.145 213.668 185.173C213.602 185.2 213.53 185.207 213.46 185.193C213.39 185.179 213.326 185.145 213.275 185.095C213.225 185.044 213.191 184.98 213.177 184.91C213.163 184.84 213.17 184.768 213.197 184.702C213.225 184.636 213.271 184.58 213.33 184.541C213.389 184.501 213.459 184.48 213.53 184.48C213.577 184.48 213.624 184.489 213.668 184.507C213.711 184.525 213.751 184.552 213.784 184.585C213.818 184.619 213.844 184.659 213.863 184.702C213.881 184.746 213.89 184.793 213.89 184.84Z" fill="#407BFF"/>
    <path opacity="0.4" d="M204.53 184.81H201.8V187.54H204.53V184.81Z" fill="white"/>
    <path d="M216 109.08H196.35C194.018 109.08 191.781 108.154 190.131 106.506C188.481 104.858 187.553 102.622 187.55 100.29V89.5601H188.55V100.29C188.553 102.357 189.376 104.338 190.838 105.799C192.301 107.26 194.283 108.08 196.35 108.08H216V109.08Z" fill="black"/>
    <path d="M196.4 71.4H183.46C180.831 71.4 178.7 73.5312 178.7 76.16V89.1C178.7 91.7289 180.831 93.86 183.46 93.86H196.4C199.029 93.86 201.16 91.7289 201.16 89.1V76.16C201.16 73.5312 199.029 71.4 196.4 71.4Z" fill="#407BFF"/>
    <path opacity="0.4" d="M196.4 71.4H183.46C180.831 71.4 178.7 73.5312 178.7 76.16V89.1C178.7 91.7289 180.831 93.86 183.46 93.86H196.4C199.029 93.86 201.16 91.7289 201.16 89.1V76.16C201.16 73.5312 199.029 71.4 196.4 71.4Z" fill="white"/>
    <path d="M189.93 76C191.93 76 192.93 77.58 192.93 79.54C192.93 81.5 191.88 83.08 189.93 83.08C187.98 83.08 186.93 81.49 186.93 79.54C186.93 77.59 188 76 189.93 76Z" fill="white"/>
    <path d="M197.75 89.27H182.11C181.986 89.2677 181.868 89.2175 181.78 89.13L182.78 86.39C183.096 85.5301 183.668 84.788 184.419 84.2639C185.17 83.7399 186.064 83.4592 186.98 83.46H192.88C193.797 83.4578 194.691 83.7379 195.443 84.2621C196.194 84.7863 196.766 85.5293 197.08 86.39L198.08 89.13C197.992 89.2175 197.874 89.2677 197.75 89.27Z" fill="white"/>
    <path d="M170.58 159H169.58V148.27C169.583 145.938 170.511 143.702 172.161 142.054C173.811 140.406 176.048 139.48 178.38 139.48H225.5V140.48H178.38C176.313 140.48 174.331 141.3 172.868 142.761C171.406 144.222 170.583 146.203 170.58 148.27V159Z" fill="black"/>
    <path d="M176.94 151.07H164C161.371 151.07 159.24 153.201 159.24 155.83V168.77C159.24 171.399 161.371 173.53 164 173.53H176.94C179.569 173.53 181.7 171.399 181.7 168.77V155.83C181.7 153.201 179.569 151.07 176.94 151.07Z" fill="#407BFF"/>
    <path opacity="0.4" d="M176.94 151.07H164C161.371 151.07 159.24 153.201 159.24 155.83V168.77C159.24 171.399 161.371 173.53 164 173.53H176.94C179.569 173.53 181.7 171.399 181.7 168.77V155.83C181.7 153.201 179.569 151.07 176.94 151.07Z" fill="white"/>
    <path opacity="0.6" d="M165.85 164.35H163.06V169.72H165.85V164.35Z" fill="white"/>
    <path opacity="0.6" d="M173.76 162.54H170.97V169.72H173.76V162.54Z" fill="white"/>
    <path d="M169.66 160.73H166.87V169.72H169.66V160.73Z" fill="white"/>
    <path d="M177.73 158.92H174.94V169.72H177.73V158.92Z" fill="white"/>
    <path d="M229.27 122.44H168.95V123.44H229.27V122.44Z" fill="black"/>
    <path d="M170.88 105H157.93C156.667 105 155.457 105.501 154.564 106.394C153.671 107.287 153.17 108.498 153.17 109.76V122.71C153.17 123.972 153.671 125.183 154.564 126.076C155.457 126.969 156.667 127.47 157.93 127.47H170.88C171.505 127.47 172.123 127.347 172.7 127.107C173.277 126.868 173.801 126.517 174.242 126.075C174.683 125.633 175.033 125.108 175.271 124.531C175.509 123.953 175.631 123.335 175.63 122.71V109.79C175.635 109.163 175.516 108.541 175.28 107.96C175.044 107.379 174.695 106.851 174.253 106.405C173.811 105.96 173.286 105.607 172.707 105.365C172.128 105.124 171.507 105 170.88 105Z" fill="#407BFF"/>
    <g opacity="0.4">
        <path d="M170.88 105H157.93C156.667 105 155.457 105.501 154.564 106.394C153.671 107.287 153.17 108.498 153.17 109.76V122.71C153.17 123.972 153.671 125.183 154.564 126.076C155.457 126.969 156.667 127.47 157.93 127.47H170.88C171.505 127.47 172.123 127.347 172.7 127.107C173.277 126.868 173.801 126.517 174.242 126.075C174.683 125.633 175.033 125.108 175.271 124.531C175.509 123.953 175.631 123.335 175.63 122.71V109.79C175.635 109.163 175.516 108.541 175.28 107.96C175.044 107.379 174.695 106.851 174.253 106.405C173.811 105.96 173.286 105.607 172.707 105.365C172.128 105.124 171.507 105 170.88 105Z" fill="white"/>
    </g>
    <path d="M164.9 108V110.08C166.2 110.186 167.434 110.697 168.43 111.54L169.9 110.07C168.512 108.839 166.751 108.111 164.9 108Z" fill="#407BFF"/>
    <path opacity="0.6" d="M164.9 108V110.08C166.2 110.186 167.434 110.697 168.43 111.54L169.9 110.07C168.512 108.839 166.751 108.111 164.9 108Z" fill="white"/>
    <path d="M163.89 122.47C162.417 122.353 161.034 121.715 159.989 120.671C158.945 119.626 158.307 118.243 158.19 116.77H156.11C156.233 118.793 157.092 120.701 158.526 122.134C159.959 123.568 161.867 124.427 163.89 124.55V122.47Z" fill="#407BFF"/>
    <path opacity="0.8" d="M163.89 122.47C162.417 122.353 161.034 121.715 159.989 120.671C158.945 119.626 158.307 118.243 158.19 116.77H156.11C156.233 118.793 157.092 120.701 158.526 122.134C159.959 123.568 161.867 124.427 163.89 124.55V122.47Z" fill="white"/>
    <path d="M158.19 115.76C158.309 114.288 158.947 112.906 159.992 111.862C161.036 110.817 162.418 110.179 163.89 110.06V108C161.867 108.123 159.959 108.982 158.526 110.416C157.092 111.849 156.233 113.757 156.11 115.78L158.19 115.76Z" fill="#407BFF"/>
    <path opacity="0.7" d="M158.19 115.76C158.309 114.288 158.947 112.906 159.992 111.862C161.036 110.817 162.418 110.179 163.89 110.06V108C161.867 108.123 159.959 108.982 158.526 110.416C157.092 111.849 156.233 113.757 156.11 115.78L158.19 115.76Z" fill="white"/>
    <path d="M170.61 110.76L169.14 112.23C169.881 113.103 170.367 114.164 170.544 115.296C170.722 116.427 170.584 117.586 170.146 118.644C169.708 119.703 168.986 120.62 168.061 121.295C167.135 121.969 166.041 122.376 164.9 122.47V124.55C166.453 124.456 167.949 123.927 169.217 123.024C170.484 122.12 171.472 120.878 172.067 119.44C172.662 118.003 172.842 116.426 172.584 114.891C172.326 113.356 171.642 111.925 170.61 110.76Z" fill="white"/>
    <path d="M217.47 104.13L220.28 104.01L224.23 147.62H221.23C219.74 147.48 219.39 145.8 218.98 142.62L216.22 112.17C215.58 105 216.81 104.13 217.47 104.13Z" fill="#407BFF"/>
    <path opacity="0.3" d="M217.47 104.13L220.28 104.01L224.23 147.62H221.23C219.74 147.48 219.39 145.8 218.98 142.62L216.22 112.17C215.58 105 216.81 104.13 217.47 104.13Z" fill="black"/>
    <path d="M222 147.62H281.11C281.273 147.609 281.432 147.563 281.576 147.486C281.72 147.409 281.845 147.302 281.945 147.172C282.044 147.043 282.115 146.893 282.152 146.734C282.189 146.575 282.192 146.41 282.16 146.25L278.47 105.37C278.452 105.024 278.31 104.695 278.069 104.445C277.828 104.195 277.506 104.041 277.16 104.01H218C217.837 104.02 217.679 104.064 217.534 104.14C217.39 104.216 217.264 104.322 217.163 104.451C217.063 104.58 216.991 104.728 216.953 104.886C216.914 105.045 216.91 105.21 216.94 105.37L220.64 146.25C220.655 146.607 220.802 146.946 221.054 147.199C221.306 147.453 221.643 147.603 222 147.62Z" fill="#407BFF"/>
    <path d="M224.22 142.45H277.9L274.92 108.42H221.24L224.22 142.45Z" fill="#407BFF"/>
    <path d="M225 145.12H277.89C278.239 145.126 278.584 145.058 278.904 144.921C279.224 144.783 279.511 144.579 279.746 144.321C279.98 144.064 280.157 143.759 280.265 143.428C280.373 143.097 280.409 142.746 280.37 142.4L277.42 108.58C277.348 107.836 277 107.145 276.445 106.644C275.89 106.142 275.168 105.867 274.42 105.87H221.53C221.182 105.862 220.837 105.929 220.517 106.065C220.197 106.202 219.91 106.405 219.675 106.662C219.44 106.919 219.263 107.223 219.155 107.553C219.047 107.884 219.012 108.234 219.05 108.58L222 142.4C222.07 143.146 222.417 143.839 222.972 144.343C223.527 144.846 224.251 145.123 225 145.12Z" fill="#263238"/>
    <path d="M224.22 142.45H277.9L274.92 108.42H221.24L224.22 142.45Z" fill="#407BFF"/>
    <path opacity="0.4" d="M224.22 142.45H277.9L274.92 108.42H221.24L224.22 142.45Z" fill="white"/>
    <path opacity="0.1" d="M239.66 105.88L229.18 145.1H232.71L243.08 105.88H239.66Z" fill="white"/>
    <path opacity="0.1" d="M245.11 105.88L234.62 145.1H241.62L251.99 105.88H245.11Z" fill="white"/>
    <path d="M221.24 108.42L221.51 111.47H275.19L274.92 108.42H221.24Z" fill="#407BFF"/>
    <path d="M223.71 109.78C223.719 109.858 223.711 109.937 223.686 110.011C223.662 110.086 223.622 110.154 223.569 110.212C223.516 110.27 223.451 110.316 223.379 110.346C223.307 110.377 223.229 110.392 223.15 110.39C222.983 110.388 222.822 110.325 222.699 110.213C222.575 110.1 222.497 109.946 222.48 109.78C222.472 109.702 222.48 109.622 222.504 109.547C222.529 109.472 222.569 109.403 222.621 109.345C222.674 109.286 222.739 109.239 222.811 109.208C222.883 109.176 222.961 109.16 223.04 109.16C223.208 109.164 223.369 109.229 223.492 109.343C223.616 109.458 223.693 109.613 223.71 109.78Z" fill="white"/>
    <path d="M225.33 109.78C225.339 109.858 225.331 109.937 225.306 110.011C225.282 110.086 225.242 110.154 225.189 110.212C225.136 110.27 225.071 110.316 224.999 110.346C224.927 110.377 224.849 110.392 224.77 110.39C224.603 110.388 224.443 110.325 224.319 110.213C224.195 110.1 224.118 109.946 224.1 109.78C224.092 109.702 224.1 109.622 224.124 109.547C224.149 109.472 224.189 109.403 224.242 109.345C224.294 109.286 224.359 109.239 224.431 109.208C224.503 109.176 224.582 109.16 224.66 109.16C224.828 109.164 224.989 109.229 225.113 109.343C225.236 109.458 225.313 109.613 225.33 109.78Z" fill="white"/>
    <path d="M227 109.78C227.009 109.858 227.001 109.937 226.976 110.011C226.952 110.086 226.912 110.154 226.859 110.212C226.806 110.27 226.741 110.316 226.669 110.346C226.597 110.377 226.519 110.392 226.44 110.39C226.273 110.388 226.112 110.325 225.989 110.213C225.865 110.1 225.788 109.946 225.77 109.78C225.762 109.702 225.77 109.622 225.794 109.547C225.819 109.472 225.859 109.403 225.912 109.345C225.964 109.286 226.029 109.239 226.101 109.208C226.173 109.176 226.251 109.16 226.33 109.16C226.498 109.164 226.659 109.229 226.782 109.343C226.906 109.458 226.983 109.613 227 109.78Z" fill="white"/>
    <path d="M282.92 147.74H222.67C221.963 147.74 221.39 148.313 221.39 149.02V149.79C221.39 150.497 221.963 151.07 222.67 151.07H282.92C283.627 151.07 284.2 150.497 284.2 149.79V149.02C284.2 148.313 283.627 147.74 282.92 147.74Z" fill="#407BFF"/>
    <path d="M245.29 147.74H307.58V148.5C307.58 149.182 307.309 149.835 306.827 150.317C306.345 150.799 305.692 151.07 305.01 151.07H247.86C247.178 151.07 246.525 150.799 246.043 150.317C245.561 149.835 245.29 149.182 245.29 148.5V147.74Z" fill="#407BFF"/>
    <path opacity="0.3" d="M245.29 147.74H307.58V148.5C307.58 149.182 307.309 149.835 306.827 150.317C306.345 150.799 305.692 151.07 305.01 151.07H247.86C247.178 151.07 246.525 150.799 246.043 150.317C245.561 149.835 245.29 149.182 245.29 148.5V147.74Z" fill="white"/>
    <path opacity="0.3" d="M271.36 147.83C271.363 148.271 271.54 148.693 271.853 149.004C272.166 149.315 272.589 149.49 273.03 149.49H280.65C281.091 149.49 281.513 149.315 281.824 149.004C282.135 148.692 282.31 148.27 282.31 147.83H271.36Z" fill="black"/>
    <path d="M193.28 215.42L186.84 213.55C186.215 213.339 185.567 213.201 184.91 213.14L180.59 212.96L177.06 211.48C176.868 211.369 176.652 211.308 176.43 211.301C176.209 211.295 175.989 211.343 175.791 211.442C175.593 211.541 175.422 211.688 175.295 211.869C175.167 212.05 175.087 212.26 175.06 212.48L174.83 214.86C174.809 215.097 174.851 215.335 174.951 215.551C175.051 215.767 175.206 215.953 175.4 216.09L180.6 219.73L187.87 218.51L194.39 221.66L195.16 216L193.28 215.42Z" fill="#FFC28C"/>
    <path d="M306.72 217.18L313.24 215.59C313.873 215.41 314.523 215.299 315.18 215.26H319.5L323.09 213.94C323.288 213.824 323.512 213.762 323.741 213.758C323.97 213.755 324.197 213.811 324.398 213.92C324.599 214.03 324.768 214.19 324.89 214.384C325.011 214.579 325.08 214.801 325.09 215.03L325.22 217.42C325.233 217.656 325.184 217.891 325.077 218.102C324.97 218.313 324.809 218.492 324.61 218.62L319.25 222.04L312 220.51L305.35 223.38L304.83 217.7L306.72 217.18Z" fill="#FFC28C"/>
    <path d="M233.84 398.44L232.3 412.59L224.57 411.77L225.36 396.34L233.84 398.44Z" fill="#FFC28C"/>
    <path d="M220.93 411.91C220.107 411.945 219.3 411.671 218.67 411.14C218.596 411.016 218.564 410.872 218.576 410.729C218.589 410.585 218.646 410.449 218.74 410.34C218.812 410.237 218.904 410.149 219.01 410.082C219.117 410.015 219.236 409.97 219.36 409.95C220.69 409.69 223.31 411.45 223.42 411.53C223.453 411.55 223.479 411.581 223.493 411.617C223.507 411.653 223.51 411.693 223.5 411.73C223.49 411.767 223.47 411.8 223.441 411.824C223.413 411.849 223.377 411.865 223.34 411.87C222.539 411.958 221.733 411.972 220.93 411.91ZM219.79 410.3C219.674 410.279 219.555 410.279 219.44 410.3C219.362 410.306 219.286 410.331 219.218 410.37C219.151 410.41 219.093 410.465 219.05 410.53C218.9 410.75 218.94 410.86 218.99 410.93C219.31 411.47 221.28 411.63 222.76 411.56C221.859 410.955 220.851 410.527 219.79 410.3Z" fill="#407BFF"/>
    <path d="M223.31 411.87C223.284 411.88 223.256 411.88 223.23 411.87C222.33 411.39 220.57 409.55 220.81 408.68C220.81 408.47 221.02 408.22 221.53 408.21C221.715 408.205 221.899 408.238 222.071 408.307C222.243 408.376 222.399 408.479 222.53 408.61C223.47 409.5 223.53 411.61 223.53 411.73C223.531 411.762 223.523 411.794 223.507 411.822C223.491 411.851 223.468 411.874 223.44 411.89L223.31 411.87ZM221.63 408.55H221.53C221.19 408.55 221.16 408.69 221.14 408.74C221.05 409.26 222.19 410.68 223.14 411.33C223.118 410.436 222.821 409.57 222.29 408.85C222.12 408.685 221.896 408.586 221.66 408.57L221.63 408.55Z" fill="#407BFF"/>
    <path d="M224.22 410.83L232.76 411.48C232.917 411.488 233.067 411.55 233.184 411.655C233.301 411.761 233.377 411.904 233.4 412.06L234.4 419.13C234.421 419.282 234.412 419.436 234.373 419.584C234.334 419.733 234.266 419.872 234.173 419.993C234.08 420.115 233.964 420.217 233.831 420.294C233.699 420.371 233.552 420.42 233.4 420.44H233.15C230.08 420.15 227.35 419.78 223.52 419.5C218.99 419.16 220.1 419.79 214.77 419.5C211.56 419.31 211.25 415.62 212.62 415.5C218.9 415.18 219.69 413.35 222.26 411.31C222.831 410.911 223.53 410.74 224.22 410.83Z" fill="#263238"/>
    <path opacity="0.2" d="M224.92 404.9L230.69 404.69L233.05 405.67L232.73 408.66L224.74 408.19L224.92 404.9Z" fill="black"/>
    <path d="M253.44 255.89L238.61 344.58L235 406.77L223.39 406.57C220.956 384.304 220.33 361.877 221.52 339.51C223.33 306.58 230.99 268.07 231.84 257.09L236.13 249.51L244.67 250.58L253.44 255.89Z" fill="#407BFF"/>
    <path d="M275.81 414.22L282.41 413.47C282.41 413.47 282.22 410.75 281.89 406.36C281.82 405.36 281.74 404.36 281.66 403.19L274.08 404.54H274C274 404.71 274.07 404.88 274.1 405.04C274.26 405.93 274.43 406.75 274.57 407.54C275.32 411.67 275.81 414.22 275.81 414.22Z" fill="#FFC28C"/>
    <path d="M283.66 411.12C283.621 411.117 283.583 411.104 283.552 411.081C283.52 411.058 283.495 411.026 283.48 410.99C283.469 410.955 283.47 410.917 283.48 410.881C283.491 410.846 283.512 410.814 283.54 410.79C283.65 410.7 286.1 408.7 287.46 408.85C287.711 408.874 287.943 408.992 288.11 409.18C288.214 409.282 288.283 409.414 288.308 409.558C288.333 409.701 288.313 409.849 288.25 409.98C288 410.45 287.03 410.79 286.07 410.98C285.272 411.091 284.466 411.138 283.66 411.12ZM284.21 410.77C285.69 410.71 287.64 410.38 287.92 409.77C287.92 409.7 287.99 409.58 287.82 409.38C287.772 409.317 287.71 409.266 287.639 409.232C287.568 409.197 287.489 409.179 287.41 409.18C287.291 409.165 287.17 409.165 287.05 409.18C286.013 409.529 285.05 410.068 284.21 410.77Z" fill="#407BFF"/>
    <path d="M283.56 411.12C283.528 411.11 283.501 411.09 283.481 411.063C283.461 411.036 283.45 411.003 283.45 410.97C283.45 410.87 283.3 408.74 284.16 407.77C284.283 407.623 284.435 407.504 284.608 407.422C284.78 407.339 284.969 407.294 285.16 407.29C285.68 407.29 285.88 407.48 285.93 407.69C286.24 408.54 284.65 410.53 283.79 411.09C283.767 411.098 283.743 411.098 283.72 411.09C283.699 411.11 283.673 411.123 283.644 411.129C283.616 411.134 283.587 411.131 283.56 411.12ZM285.06 407.65C284.83 407.691 284.621 407.811 284.47 407.99C284.002 408.755 283.778 409.645 283.83 410.54C284.7 409.81 285.7 408.29 285.57 407.78C285.57 407.78 285.5 407.6 285.17 407.63H285.06V407.65Z" fill="#407BFF"/>
    <path d="M282.19 410.33L275.45 411.33C275.294 411.357 275.152 411.436 275.047 411.554C274.941 411.672 274.879 411.822 274.87 411.98L274.48 419.12C274.469 419.271 274.488 419.422 274.536 419.565C274.584 419.708 274.66 419.84 274.76 419.954C274.86 420.067 274.981 420.16 275.116 420.226C275.252 420.292 275.399 420.331 275.55 420.34C275.633 420.35 275.717 420.35 275.8 420.34C278.8 419.78 279.8 419.52 283.6 418.9C288.09 418.16 287.04 418.9 292.33 418.09C295.51 417.6 295.5 413.9 294.12 413.94C287.83 414.21 282.85 410.19 282.19 410.33Z" fill="#263238"/>
    <path opacity="0.2" d="M274.54 407.55L281.89 406.36C281.82 405.36 281.74 404.36 281.66 403.19L274.08 404.54V405.05C274.23 405.94 274.4 406.76 274.54 407.55Z" fill="black"/>
    <path opacity="0.2" d="M249.89 276.49L245.89 300.2C244.7 283.2 246.29 262.97 246.29 262.97L249.89 276.49Z" fill="black"/>
    <path d="M266.16 253.68C266.16 253.68 275.58 322.12 279.09 339.73C282.21 355.37 282.78 404.84 282.78 404.84L272.45 406C272.45 406 266.55 378.78 264.6 359.64C263.92 352.96 264.11 347.36 263.5 343.92C262.69 339.38 236.35 266.08 241.25 254.51L266.16 253.68Z" fill="#407BFF"/>
    <path d="M231.44 244.5C231.785 241.54 231.868 238.555 231.69 235.58C229.32 207.28 228.47 205.58 228.69 200.58C228.704 200.137 228.852 199.709 229.114 199.352C229.376 198.995 229.741 198.726 230.16 198.58C249.74 191.92 264.97 195.08 269.39 197.58C275.28 200.9 272.93 204.45 272.86 205.46C272.29 213.85 267.67 229.4 267.57 243.01C267.57 245.01 267.77 249.81 267.9 252.47C267.925 252.992 267.762 253.506 267.441 253.919C267.12 254.331 266.662 254.616 266.15 254.72C261.76 255.63 242.5 255.87 238.89 255.72C235.44 255.6 233.17 255.39 231.72 255.2C231.42 255.159 231.133 255.056 230.876 254.898C230.618 254.74 230.397 254.53 230.224 254.282C230.052 254.034 229.934 253.753 229.876 253.456C229.819 253.16 229.823 252.855 229.89 252.56C230.45 250.17 231.27 246.27 231.44 244.5Z" fill="#263238"/>
    <path d="M255 181.39C254.26 185.77 254.56 192.2 257.69 195.05C257.69 195.05 257.63 199.51 245.39 204.63C240.77 198.35 244.05 195.38 244.05 195.38C248.92 194.1 247.74 192.11 246.81 188.73L255 181.39Z" fill="#FFC28C"/>
    <path opacity="0.2" d="M251.67 184.34L246.85 188.73C247.08 189.511 247.241 190.311 247.33 191.12C249.2 190.81 252.09 189.12 252.44 187.12C252.418 186.144 252.153 185.189 251.67 184.34Z" fill="black"/>
    <path d="M260.52 173.75C258.74 180.96 258.13 184.04 253.76 187.1C247.18 191.72 238.76 187.94 238.31 180.34C237.95 173.5 240.95 162.82 248.62 161.27C250.31 160.914 252.063 160.996 253.713 161.508C255.363 162.02 256.854 162.945 258.046 164.195C259.238 165.445 260.091 166.979 260.524 168.651C260.957 170.323 260.956 172.079 260.52 173.75Z" fill="#FFC28C"/>
    <path d="M248 172.82C247.88 173.41 247.48 173.82 247.1 173.82C246.72 173.82 246.48 173.2 246.59 172.61C246.7 172.02 247.11 171.61 247.49 171.66C247.87 171.71 248.09 172.25 248 172.82Z" fill="#263238"/>
    <path d="M241.36 171.66C241.25 172.26 240.84 172.66 240.46 172.66C240.08 172.66 239.84 172.04 239.95 171.45C240.06 170.86 240.47 170.45 240.85 170.51C241.23 170.57 241.47 171.06 241.36 171.66Z" fill="#263238"/>
    <path d="M243.71 173.75C242.93 175.007 241.981 176.151 240.89 177.15C241.154 177.423 241.474 177.635 241.828 177.771C242.182 177.908 242.562 177.965 242.94 177.94L243.71 173.75Z" fill="#F1A663"/>
    <path d="M245.74 180.86C245.441 180.851 245.143 180.818 244.85 180.76C244.828 180.756 244.806 180.748 244.787 180.736C244.767 180.724 244.751 180.708 244.738 180.69C244.725 180.671 244.716 180.65 244.711 180.628C244.706 180.605 244.706 180.582 244.71 180.56C244.714 180.537 244.722 180.514 244.735 180.494C244.747 180.474 244.764 180.457 244.784 180.443C244.804 180.43 244.826 180.421 244.85 180.417C244.873 180.413 244.897 180.414 244.92 180.42C245.656 180.569 246.416 180.543 247.14 180.345C247.864 180.147 248.532 179.782 249.09 179.28C249.123 179.246 249.169 179.226 249.217 179.225C249.264 179.224 249.311 179.242 249.345 179.275C249.38 179.308 249.399 179.354 249.4 179.402C249.401 179.449 249.383 179.496 249.35 179.53C248.866 179.979 248.298 180.328 247.678 180.556C247.059 180.784 246.4 180.888 245.74 180.86Z" fill="#263238"/>
    <path d="M251.17 171.91C251.096 171.924 251.02 171.913 250.953 171.878C250.886 171.844 250.832 171.788 250.8 171.72C250.484 171.236 250.072 170.822 249.588 170.505C249.104 170.189 248.56 169.976 247.99 169.88C247.896 169.865 247.812 169.814 247.756 169.737C247.699 169.66 247.676 169.564 247.69 169.47C247.705 169.379 247.755 169.297 247.83 169.242C247.905 169.188 247.999 169.166 248.09 169.18C248.775 169.288 249.428 169.544 250.005 169.929C250.581 170.314 251.068 170.819 251.43 171.41C251.469 171.494 251.474 171.59 251.444 171.677C251.414 171.765 251.352 171.837 251.27 171.88C251.24 171.898 251.205 171.908 251.17 171.91Z" fill="#263238"/>
    <path d="M240.19 169.35C240.127 169.365 240.061 169.362 240 169.343C239.938 169.324 239.883 169.288 239.84 169.24C239.807 169.207 239.78 169.168 239.762 169.126C239.744 169.083 239.735 169.037 239.735 168.99C239.735 168.943 239.744 168.897 239.762 168.854C239.78 168.811 239.807 168.773 239.84 168.74C240.246 168.341 240.743 168.047 241.289 167.885C241.835 167.723 242.412 167.697 242.97 167.81C243.014 167.818 243.055 167.835 243.092 167.86C243.129 167.885 243.161 167.917 243.185 167.954C243.21 167.992 243.226 168.034 243.234 168.078C243.241 168.122 243.24 168.167 243.23 168.21C243.209 168.3 243.152 168.378 243.074 168.427C242.995 168.475 242.9 168.491 242.81 168.47C242.37 168.394 241.918 168.425 241.492 168.559C241.066 168.693 240.678 168.926 240.36 169.24C240.316 169.293 240.256 169.331 240.19 169.35Z" fill="#263238"/>
    <path d="M259 194.61L257.71 194.39L250.54 198.3L248.32 198.38L244.06 194.76L242.63 195.1C241.303 199.204 241.048 203.58 241.89 207.81L244.3 219.91L246.82 233.16L247.36 231.94L249.36 227.38L252.1 222.18L257.1 209.46L258.52 204.22C259.362 201.09 259.508 197.813 258.95 194.62L259 194.61Z" fill="#263238"/>
    <path opacity="0.2" d="M251.27 198.39C243.58 198.46 242.73 195.63 242.73 195.63V195C242.73 195 240.41 199.37 247.08 200.14C253.75 200.91 258.2 197.75 259.15 195.85C258.41 196.81 256.42 198.35 251.27 198.39Z" fill="black"/>
    <path d="M260.24 163.84C259.994 162.674 259.438 161.596 258.63 160.72C258.212 160.299 257.647 160.056 257.054 160.043C256.461 160.03 255.886 160.247 255.45 160.65C254.798 159.911 253.984 159.334 253.071 158.963C252.159 158.591 251.173 158.436 250.19 158.51C249.257 158.592 248.359 158.901 247.572 159.41C246.786 159.919 246.137 160.612 245.68 161.43C244.79 163.08 241.98 163.66 240.12 163.85C241.34 165.08 244.36 165.85 245.87 165.02C245.5 165.6 243.81 165.91 243.12 166.02C244.231 166.69 245.466 167.128 246.75 167.31C247.394 167.39 248.048 167.274 248.625 166.978C249.203 166.682 249.678 166.219 249.99 165.65C249.712 166.118 249.594 166.664 249.654 167.205C249.713 167.746 249.947 168.253 250.32 168.65C250.702 169.043 251.2 169.302 251.74 169.388C252.281 169.475 252.835 169.384 253.32 169.13C253.012 169.034 252.745 168.836 252.564 168.569C252.382 168.302 252.296 167.982 252.32 167.66C252.331 167.315 252.448 166.982 252.655 166.706C252.863 166.43 253.151 166.225 253.48 166.12C253.577 167.046 254.033 167.896 254.75 168.49C255.41 169 255.99 169.21 256.4 169.94C256.81 170.67 256.32 172.44 255.01 172.32C255.6 172.95 258.01 172.72 258.28 171.9C258.068 172.934 257.635 173.91 257.01 174.761C256.385 175.612 255.583 176.318 254.66 176.83C255.14 176.857 255.612 176.958 256.06 177.13C256.322 177.189 256.569 177.3 256.788 177.456C257.006 177.612 257.19 177.811 257.33 178.04C257.459 178.392 257.517 178.765 257.502 179.139C257.487 179.513 257.398 179.88 257.24 180.22C256.637 182.078 255.916 183.895 255.08 185.66C256.275 185.338 257.382 184.749 258.316 183.936C259.25 183.124 259.986 182.109 260.47 180.97C261.612 180.577 262.593 179.818 263.26 178.811C263.927 177.804 264.244 176.605 264.16 175.4C265.343 174.357 266.146 172.95 266.44 171.4C266.539 170.653 266.359 169.895 265.935 169.271C265.51 168.648 264.872 168.203 264.14 168.02C264.383 167.427 264.462 166.779 264.367 166.146C264.272 165.512 264.007 164.915 263.6 164.42C263.418 164.161 263.186 163.941 262.918 163.772C262.651 163.602 262.352 163.488 262.04 163.434C261.728 163.38 261.409 163.388 261.1 163.458C260.791 163.527 260.499 163.657 260.24 163.84Z" fill="#263238"/>
    <path d="M260.22 179C259.567 180.145 258.489 180.986 257.22 181.34C255.53 181.79 254.7 180.26 255.22 178.66C255.67 177.23 257.09 175.27 258.79 175.5C259.082 175.55 259.361 175.656 259.611 175.814C259.861 175.972 260.078 176.177 260.249 176.418C260.42 176.66 260.542 176.933 260.607 177.221C260.672 177.51 260.68 177.809 260.63 178.1C260.565 178.428 260.425 178.736 260.22 179Z" fill="#FFC28C"/>
    <path d="M257 173.81L252.08 172.97C251.67 171.71 249.89 171.41 249.14 171.28C248.39 171.15 246.48 170.83 245.72 172.04L244.01 171.74C243.69 170.36 241.81 170.03 241.01 169.9C240.21 169.77 237.66 169.33 237.3 171.41C237.25 172.25 237.512 173.079 238.035 173.738C238.558 174.397 239.306 174.84 240.135 174.983C240.965 175.125 241.818 174.957 242.53 174.51C243.243 174.063 243.767 173.369 244 172.56C244.01 172.447 244.01 172.333 244 172.22L245.47 172.47C245.436 172.578 245.41 172.688 245.39 172.8C245.343 173.639 245.607 174.466 246.131 175.122C246.655 175.779 247.403 176.22 248.231 176.361C249.059 176.502 249.91 176.333 250.622 175.887C251.334 175.44 251.856 174.747 252.09 173.94C252.104 173.777 252.104 173.613 252.09 173.45L256.85 174.27C257.499 174.379 258.09 174.711 258.52 175.21L258.87 174.91C258.389 174.343 257.73 173.955 257 173.81ZM240.24 174.53C239.52 174.449 238.86 174.091 238.4 173.53C237.941 172.97 237.718 172.252 237.78 171.53C237.98 170.39 238.92 170.05 240.95 170.39C242.98 170.73 243.76 171.39 243.56 172.52C243.378 173.226 242.926 173.833 242.301 174.209C241.676 174.585 240.929 174.7 240.22 174.53H240.24ZM248.35 175.91C247.631 175.829 246.971 175.47 246.513 174.909C246.055 174.349 245.835 173.631 245.9 172.91C246.09 171.77 247.04 171.43 249.07 171.78C251.1 172.13 251.87 172.78 251.68 173.9C251.498 174.608 251.045 175.217 250.418 175.593C249.79 175.969 249.04 176.083 248.33 175.91H248.35Z" fill="#263238"/>
    <path d="M192 214.46C199.373 216.366 207.036 216.888 214.6 216C218.522 209.142 223.836 203.181 230.2 198.5L233 209C233 209 224.66 222.25 217.91 225.3C212.56 227.72 196.51 223.41 190.07 221.51C190.166 219.043 190.826 216.632 192 214.46Z" fill="#263238"/>
    <path d="M308.43 215.64C301.026 217.362 293.367 217.701 285.84 216.64C282.075 209.694 276.893 203.616 270.63 198.8L267.63 209.23C267.63 209.23 275.68 222.67 282.37 225.86C287.66 228.39 303.8 224.43 310.28 222.68C310.204 220.224 309.572 217.816 308.43 215.64Z" fill="#263238"/>
    <path d="M242.76 192.79V195.63C242.76 195.63 243.36 198.71 251.05 198.63C258.74 198.55 259.64 194.92 259.64 194.92V192.86C259.645 192.513 259.572 192.169 259.427 191.853C259.282 191.537 259.069 191.258 258.803 191.035C258.537 190.812 258.224 190.651 257.888 190.563C257.552 190.476 257.201 190.465 256.86 190.53C253.063 191.127 249.196 191.127 245.4 190.53C245.075 190.488 244.745 190.515 244.431 190.608C244.117 190.702 243.826 190.86 243.577 191.073C243.328 191.286 243.127 191.549 242.986 191.845C242.845 192.141 242.768 192.463 242.76 192.79Z" fill="#263238"/>
</svg>
