<svg width="36" height="40" viewBox="0 0 36 40" fill="none" xmlns="http://www.w3.org/2000/svg">
<path d="M9.30656 0.333746C9.21375 0.34536 9.1226 0.375894 9.03656 0.426075C8.6924 0.626803 8.57347 1.07134 8.77219 1.41897L10.7086 4.80676C8.22406 6.79919 6.4615 9.75377 5.93719 13.0908H30.1106C29.6543 9.67631 27.8843 6.69616 25.3434 4.71727L27.2278 1.41897C27.4265 1.07134 27.3076 0.626803 26.9634 0.426075C26.6193 0.225348 26.1792 0.344064 25.9805 0.6917L24.1439 3.90477C22.4011 2.85292 20.3894 2.22636 18.2334 2.1846C15.9189 2.13991 13.7477 2.79641 11.887 3.95875L10.0195 0.6917C9.87049 0.430973 9.585 0.298905 9.30656 0.333746ZM12.6 7.27267C13.1962 7.27267 13.68 7.76139 13.68 8.36358C13.68 8.96576 13.1962 9.45448 12.6 9.45448C12.0038 9.45448 11.52 8.96576 11.52 8.36358C11.52 7.76139 12.0038 7.27267 12.6 7.27267ZM23.4 7.27267C23.9962 7.27267 24.48 7.76139 24.48 8.36358C24.48 8.96576 23.9962 9.45448 23.4 9.45448C22.8038 9.45448 22.32 8.96576 22.32 8.36358C22.32 7.76139 22.8038 7.27267 23.4 7.27267ZM5.78812 14.5852C5.77949 14.7786 5.76 14.9698 5.76 15.1647V30.4772C5.76 32.1208 7.04952 33.4545 8.64 33.4545H10.8V38.1818C10.8 39.1861 11.6057 39.9999 12.6 39.9999C13.5943 39.9999 14.4 39.1861 14.4 38.1818V33.4545H21.6V38.1818C21.6 39.1861 22.4057 39.9999 23.4 39.9999C24.3943 39.9999 25.2 39.1861 25.2 38.1818V33.4545H27.36C28.9505 33.4545 30.24 32.1208 30.24 30.4772V15.2343L5.78812 14.5852ZM1.8 15.2727C0.80568 15.2727 0 16.0865 0 17.0908V22.909C0 23.9134 0.80568 24.7272 1.8 24.7272C2.79432 24.7272 3.6 23.9134 3.6 22.909V17.0908C3.6 16.0865 2.79432 15.2727 1.8 15.2727ZM34.2 15.2727C33.2057 15.2727 32.4 16.0865 32.4 17.0908V22.909C32.4 23.9134 33.2057 24.7272 34.2 24.7272C35.1943 24.7272 36 23.9134 36 22.909V17.0908C36 16.0865 35.1943 15.2727 34.2 15.2727Z" fill="#C8D5E5"/>
</svg>
