<svg width="23" height="40" viewBox="0 0 23 40" fill="none" xmlns="http://www.w3.org/2000/svg">
<g clip-path="url(#clip0_40007_56)">
<path fill-rule="evenodd" clip-rule="evenodd" d="M18.5769 0H4.42308C1.98154 0 0 2.03636 0 4.54545V35.4545C0 37.9636 1.98154 40 4.42308 40H18.5769C21.0185 40 23 37.9636 23 35.4545V4.54545C23 2.03636 21.0185 0 18.5769 0ZM11.5 38.1818C10.0315 38.1818 8.84615 36.9636 8.84615 35.4545C8.84615 33.9455 10.0315 32.7273 11.5 32.7273C12.9685 32.7273 14.1538 33.9455 14.1538 35.4545C14.1538 36.9636 12.9685 38.1818 11.5 38.1818ZM19.4615 30.9091H3.53846V5.45455H19.4615V30.9091Z" fill="#C8D5E5"/>
<g clip-path="url(#clip1_40007_56)">
<path d="M9.75311 25C8.69686 25 7.96561 24.0656 7.43748 23.2531C6.09686 21.1813 5.81248 18.5813 6.78748 17.0781C7.43748 16.0625 8.49373 15.4531 9.50936 15.4531C10.0375 15.4531 10.4844 15.6156 10.85 15.7375C11.1344 15.8594 11.4187 15.9406 11.7031 15.9406C11.9469 15.9406 12.15 15.8594 12.4344 15.7375C12.8 15.6156 13.2469 15.4531 13.8562 15.4531C14.75 15.4531 15.6844 15.9406 16.3344 16.7531C16.4156 16.8344 16.4562 16.9562 16.4156 17.0781C16.375 17.2 16.3344 17.2812 16.2125 17.3625C15.4812 17.7687 15.075 18.5 15.1562 19.3125C15.1969 20.1656 15.725 20.8563 16.4969 21.1406C16.6187 21.1813 16.7 21.2625 16.7406 21.3844C16.7812 21.5063 16.7812 21.5875 16.7406 21.7094C16.4562 22.3187 16.3344 22.6031 15.9687 23.1312C15.3594 24.025 14.6281 24.9594 13.6531 24.9594C13.2062 24.9594 12.9219 24.8375 12.6781 24.7156C12.4344 24.5937 12.1906 24.4719 11.7031 24.4719C11.2562 24.4719 11.0125 24.5937 10.7281 24.7156C10.4844 24.8781 10.2 25 9.75311 25Z" fill="#C8D5E5"/>
<path d="M11.3781 15.5344C11.3375 15.5344 11.3375 15.5344 11.2968 15.5344C11.0937 15.5344 10.9312 15.3719 10.8906 15.2094C10.7687 14.5187 11.0125 13.7062 11.5406 13.0562C12.0281 12.4469 12.8406 12.0406 13.5718 11.9594C13.775 11.9594 13.9781 12.0812 14.0187 12.325C14.1406 13.0562 13.8968 13.8281 13.3687 14.4781C12.9218 15.1281 12.1093 15.5344 11.3781 15.5344Z" fill="#C8D5E5"/>
</g>
</g>
<defs>
<clipPath id="clip0_40007_56">
<rect width="23" height="40" fill="white"/>
</clipPath>
<clipPath id="clip1_40007_56">
<rect width="13" height="13" fill="white" transform="translate(5 12)"/>
</clipPath>
</defs>
</svg>
