<svg width="46" height="40" viewBox="0 0 46 40" fill="none" xmlns="http://www.w3.org/2000/svg">
<path d="M18.0167 2.66663V35.0108L24.9631 37.3333V10.2035C24.9631 8.9334 25.504 8.08453 26.3662 8.37951C27.5021 8.71023 27.724 9.88209 27.724 11.1522V21.9868C32.0507 24.1869 35.4583 21.9854 35.4583 16.1676C35.4583 10.2035 33.4652 7.5571 27.5828 5.43005C25.2707 4.60889 20.9679 3.24188 18.0167 2.66663Z" fill="#C8D5E5"/>
<path d="M26.7375 33.229L38.0634 29.1636C39.3444 28.7014 39.5439 28.0474 38.5019 27.7037C37.4574 27.3587 35.5666 27.459 34.2816 27.9225L26.7375 30.5977V26.3365L27.1721 26.1898C27.1721 26.1898 29.3533 25.4135 32.4202 25.0723C35.486 24.7312 39.2408 25.1161 42.1864 26.2412C45.5092 27.3007 45.8838 28.8571 45.0413 29.9295C44.1949 31.002 42.1263 31.7679 42.1263 31.7679L26.7375 37.3333V33.229Z" fill="#C8D5E5"/>
<path d="M4.13027 31.168C0.395733 30.1717 -0.226919 28.0965 1.47167 26.9009C3.04873 25.7958 5.7198 24.9611 5.7198 24.9611L16.7708 21.238V25.4813L8.82037 28.1814C7.41289 28.6617 7.19876 29.3344 8.33916 29.69C9.48222 30.0455 11.5503 29.9448 12.9565 29.4644L16.7708 28.1548V31.9522C16.5274 31.9948 16.2574 32.0345 16.0096 32.0743C12.1925 32.6661 8.13064 32.4207 4.13027 31.168Z" fill="#C8D5E5"/>
</svg>
