<svg width="41" height="40" viewBox="0 0 41 40" fill="none" xmlns="http://www.w3.org/2000/svg">
<path fill-rule="evenodd" clip-rule="evenodd" d="M13.8285 4.05558C15.4301 4.49309 17.5764 5.35061 18.5983 5.96123C19.8646 6.71792 20.4143 7.06165 20.9459 7.03516C21.3926 7.01296 21.8263 6.72965 22.6615 6.21061C24.7457 4.91489 29.9516 3.32316 31.1465 3.61613C31.6829 3.74772 30.7904 3.19378 29.1632 2.38509C24.9821 0.307577 19.3704 -0.0314716 14.6291 1.50716C12.8177 2.09502 11.2414 2.72992 11.1262 2.91806C11.011 3.1062 12.227 3.61806 13.8285 4.05558ZM36.641 30.848C36.5887 27.0214 33.6215 21.2396 28.2498 14.4968L25.653 11.2374L27.9811 9.08109C29.2617 7.89516 31.0813 6.50758 32.0247 5.99765L33.74 5.07047L35.6401 6.93958C36.6852 7.96744 38.2109 10.1805 39.0306 11.8572C40.315 14.4844 40.5433 15.5051 40.6816 19.2375C40.867 24.2436 40.1119 27.4756 38.02 30.6301L36.6659 32.672L36.641 30.848ZM1.74427 13.989C-0.0965053 18.8803 0.895216 26.4146 3.98205 30.9902C5.19893 32.7939 5.47582 32.9789 5.0814 31.7243C4.29939 29.2378 8.34104 21.0513 13.5888 14.4923L16.2003 11.228L13.7616 9.02344C12.4203 7.81103 10.6154 6.43447 9.75075 5.96454C8.29594 5.17392 8.09339 5.16647 7.03587 5.86578C5.57176 6.83392 2.88435 10.9594 1.74427 13.989ZM6.22434 33.009C6.22434 34.8563 11.5034 38.2781 16.2374 39.4993C21.2809 40.8004 28.3537 39.4106 32.6792 36.2684C36.2656 33.6632 36.3861 32.7447 33.6826 28.6254C32.0163 26.0865 24.5686 18.3008 22.2409 16.6647L20.7591 15.623L17.4552 18.5C11.5822 23.6142 6.22434 30.536 6.22434 33.009Z" fill="#C8D5E5"/>
</svg>
