<svg width="123" height="116" viewBox="0 0 123 116" fill="none" xmlns="http://www.w3.org/2000/svg">
    <path d="M51.7398 115.411C80.3149 115.411 103.48 111.082 103.48 105.743C103.48 100.404 80.3149 96.0755 51.7398 96.0755C23.1647 96.0755 0 100.404 0 105.743C0 111.082 23.1647 115.411 51.7398 115.411Z" fill="#F5F5F7" fill-opacity="0.8"/>
    <path fill-rule="evenodd" clip-rule="evenodd" d="M93.1312 77.3415L74.8727 54.8703C73.9965 53.8126 72.716 53.1723 71.3675 53.1723H32.1106C30.7629 53.1723 29.4823 53.8126 28.6062 54.8703L10.3484 77.3415V89.0811H93.132V77.3415H93.1312Z" fill="#AEB8C2"/>
    <path fill-rule="evenodd" clip-rule="evenodd" d="M25.8176 24.1692H77.6612C78.4708 24.1692 79.2473 24.4908 79.8198 25.0633C80.3923 25.6358 80.7139 26.4122 80.7139 27.2219V98.4581C80.7139 99.2677 80.3923 100.044 79.8198 100.617C79.2473 101.189 78.4708 101.511 77.6612 101.511H25.8176C25.008 101.511 24.2316 101.189 23.6591 100.617C23.0866 100.044 22.765 99.2677 22.765 98.4581V27.2219C22.765 26.4122 23.0866 25.6358 23.6591 25.0633C24.2316 24.4908 25.008 24.1692 25.8176 24.1692V24.1692Z" fill="#F5F5F7"/>
    <path fill-rule="evenodd" clip-rule="evenodd" d="M32.5701 31.7649H70.9088C71.3136 31.7649 71.7018 31.9257 71.9881 32.212C72.2743 32.4982 72.4351 32.8864 72.4351 33.2912V52.3374C72.4351 52.7422 72.2743 53.1304 71.9881 53.4166C71.7018 53.7029 71.3136 53.8637 70.9088 53.8637H32.5701C32.1652 53.8637 31.777 53.7029 31.4908 53.4166C31.2045 53.1304 31.0437 52.7422 31.0437 52.3374V33.2912C31.0437 32.8864 31.2045 32.4982 31.4908 32.212C31.777 31.9257 32.1652 31.7649 32.5701 31.7649ZM32.77 62.1493H70.7089C71.1667 62.1493 71.6058 62.3312 71.9295 62.6549C72.2533 62.9786 72.4351 63.4177 72.4351 63.8756C72.4351 64.3334 72.2533 64.7725 71.9295 65.0962C71.6058 65.4199 71.1667 65.6018 70.7089 65.6018H32.77C32.3122 65.6018 31.8731 65.4199 31.5493 65.0962C31.2256 64.7725 31.0437 64.3334 31.0437 63.8756C31.0437 63.4177 31.2256 62.9786 31.5493 62.6549C31.8731 62.3312 32.3122 62.1493 32.77 62.1493ZM32.77 71.1263H70.7089C71.1668 71.1263 71.606 71.3082 71.9298 71.632C72.2536 71.9559 72.4355 72.395 72.4355 72.853C72.4355 73.3109 72.2536 73.7501 71.9298 74.0739C71.606 74.3977 71.1668 74.5796 70.7089 74.5796H32.77C32.3121 74.5796 31.8729 74.3977 31.5491 74.0739C31.2253 73.7501 31.0434 73.3109 31.0434 72.853C31.0434 72.395 31.2253 71.9559 31.5491 71.632C31.8729 71.3082 32.3121 71.1263 32.77 71.1263ZM92.9625 104.325C92.3711 106.669 90.2938 108.416 87.8227 108.416H15.6562C13.1851 108.416 11.1078 106.668 10.5171 104.325C10.4044 103.879 10.3475 103.42 10.3477 102.959V77.3422H30.4324C32.6509 77.3422 34.439 79.2104 34.439 81.4786V81.5091C34.439 83.7764 36.2477 85.6072 38.4662 85.6072H65.0127C67.2312 85.6072 69.0398 83.7596 69.0398 81.4915V81.4824C69.0398 79.2143 70.8279 77.3415 73.0464 77.3415H93.1312V102.96C93.1312 103.431 93.0724 103.888 92.9625 104.325Z" fill="#DCE0E6"/>
    <path fill-rule="evenodd" clip-rule="evenodd" d="M95.4871 25.4071L90.2747 27.4294C90.1408 27.4815 89.9949 27.4947 89.8538 27.4675C89.7128 27.4404 89.5822 27.374 89.4772 27.2759C89.3722 27.1778 89.297 27.0521 89.2603 26.9132C89.2236 26.7743 89.2268 26.6279 89.2696 26.4907L90.7479 21.7538C88.7721 19.5071 87.6121 16.7673 87.6121 13.8109C87.6121 6.18311 95.3337 0 104.859 0C114.383 0 122.105 6.18311 122.105 13.8109C122.105 21.4386 114.384 27.6217 104.859 27.6217C101.403 27.6217 98.1856 26.8082 95.4871 25.4071Z" fill="#DCE0E6"/>
    <path d="M111.653 16.3049C112.854 16.3049 113.827 15.3431 113.827 14.1566C113.827 12.9701 112.854 12.0083 111.653 12.0083C110.452 12.0083 109.479 12.9701 109.479 14.1566C109.479 15.3431 110.452 16.3049 111.653 16.3049Z" fill="white"/>
    <path fill-rule="evenodd" clip-rule="evenodd" d="M100.239 16.0362H95.8908L98.1024 12.2769L100.239 16.0362ZM102.957 12.2769H106.761V16.0362H102.957V12.2769Z" fill="white"/>
</svg>

