<svg width="116" height="110" viewBox="0 0 116 110" fill="none" xmlns="http://www.w3.org/2000/svg">
<path d="M49.1528 109.64C76.2992 109.64 98.3056 105.528 98.3056 100.456C98.3056 95.3837 76.2992 91.2717 49.1528 91.2717C22.0065 91.2717 0 95.3837 0 100.456C0 105.528 22.0065 109.64 49.1528 109.64Z" fill="#262F3B"/>
<path fill-rule="evenodd" clip-rule="evenodd" d="M88.4747 73.4744L71.129 52.1268C70.2967 51.1219 69.0802 50.5137 67.7991 50.5137H30.5051C29.2247 50.5137 28.0082 51.1219 27.1759 52.1268L9.83099 73.4744V84.6271H88.4754V73.4744H88.4747Z" fill="#262F3B"/>
<path fill-rule="evenodd" clip-rule="evenodd" d="M24.5268 22.9608H73.7782C74.5473 22.9608 75.2849 23.2663 75.8288 23.8101C76.3726 24.354 76.6782 25.0916 76.6782 25.8608V93.5352C76.6782 94.3043 76.3726 95.0419 75.8288 95.5858C75.2849 96.1296 74.5473 96.4352 73.7782 96.4352H24.5268C23.7576 96.4352 23.02 96.1296 22.4761 95.5858C21.9323 95.0419 21.6268 94.3043 21.6268 93.5352V25.8608C21.6268 25.0916 21.9323 24.354 22.4761 23.8101C23.02 23.2663 23.7576 22.9608 24.5268 22.9608V22.9608Z" fill="#4B5E77"/>
<path fill-rule="evenodd" clip-rule="evenodd" d="M30.9416 30.1767H67.3634C67.7479 30.1767 68.1168 30.3295 68.3887 30.6014C68.6606 30.8733 68.8134 31.2421 68.8134 31.6267V49.7205C68.8134 50.1051 68.6606 50.4739 68.3887 50.7458C68.1168 51.0178 67.7479 51.1705 67.3634 51.1705H30.9416C30.557 51.1705 30.1882 51.0178 29.9162 50.7458C29.6443 50.4739 29.4916 50.1051 29.4916 49.7205V31.6267C29.4916 31.2421 29.6443 30.8733 29.9162 30.6014C30.1882 30.3295 30.557 30.1767 30.9416 30.1767ZM31.1315 59.0418H67.1734C67.6084 59.0418 68.0255 59.2146 68.333 59.5222C68.6406 59.8297 68.8134 60.2469 68.8134 60.6818C68.8134 61.1167 68.6406 61.5339 68.333 61.8414C68.0255 62.149 67.6084 62.3218 67.1734 62.3218H31.1315C30.6966 62.3218 30.2794 62.149 29.9719 61.8414C29.6643 61.5339 29.4916 61.1167 29.4916 60.6818C29.4916 60.2469 29.6643 59.8297 29.9719 59.5222C30.2794 59.2146 30.6966 59.0418 31.1315 59.0418ZM31.1315 67.57H67.1734C67.6085 67.57 68.0257 67.7428 68.3333 68.0505C68.6409 68.3581 68.8137 68.7753 68.8137 69.2103C68.8137 69.6454 68.6409 70.0626 68.3333 70.3702C68.0257 70.6778 67.6085 70.8507 67.1734 70.8507H31.1315C30.6965 70.8507 30.2792 70.6778 29.9716 70.3702C29.664 70.0626 29.4912 69.6454 29.4912 69.2103C29.4912 68.7753 29.664 68.3581 29.9716 68.0505C30.2792 67.7428 30.6965 67.57 31.1315 67.57ZM88.3144 99.109C87.7526 101.335 85.7791 102.995 83.4316 102.995H14.8734C12.5258 102.995 10.5524 101.335 9.99123 99.109C9.8842 98.6847 9.83014 98.2488 9.83028 97.8112V73.4752H28.9108C31.0184 73.4752 32.7171 75.2499 32.7171 77.4046V77.4336C32.7171 79.5876 34.4353 81.3269 36.5429 81.3269H61.762C63.8696 81.3269 65.5879 79.5717 65.5879 77.417V77.4083C65.5879 75.2536 67.2865 73.4744 69.3941 73.4744H88.4747V97.8119C88.4747 98.2593 88.4188 98.6935 88.3144 99.109Z" fill="#3A4859"/>
<path fill-rule="evenodd" clip-rule="evenodd" d="M90.7127 24.1367L85.761 26.058C85.6338 26.1074 85.4952 26.12 85.3612 26.0942C85.2271 26.0684 85.1031 26.0053 85.0034 25.9121C84.9036 25.8189 84.8322 25.6995 84.7973 25.5676C84.7624 25.4356 84.7655 25.2965 84.8062 25.1662L86.2105 20.6661C84.3334 18.5317 83.2315 15.929 83.2315 13.1203C83.2315 5.87395 90.567 0 99.6164 0C108.664 0 116 5.87395 116 13.1203C116 20.3667 108.664 26.2407 99.6157 26.2407C96.3329 26.2407 93.2763 25.4678 90.7127 24.1367Z" fill="#4B5E77"/>
<path d="M106.07 15.4896C107.211 15.4896 108.136 14.5759 108.136 13.4487C108.136 12.3216 107.211 11.4079 106.07 11.4079C104.93 11.4079 104.005 12.3216 104.005 13.4487C104.005 14.5759 104.93 15.4896 106.07 15.4896Z" fill="#3A4859"/>
<path fill-rule="evenodd" clip-rule="evenodd" d="M95.2273 15.2344H91.0963L93.1973 11.6631L95.2273 15.2344ZM97.809 11.6631H101.423V15.2344H97.809V11.6631Z" fill="#3A4859"/>
</svg>
