<svg width="13" height="14" viewBox="-0.45 0 13 14" fill="none" xmlns="http://www.w3.org/2000/svg">
    <path d="M7.08117 1.93904C7.08117 1.38675 6.63345 0.939034 6.08117 0.939034H6.06097C5.50868 0.939035 5.06097 1.38675 5.06097 1.93903L5.06097 4.9899C5.06097 5.54218 4.61325 5.9899 4.06097 5.9899L1.0101 5.9899C0.457818 5.9899 0.010102 6.43761 0.010102 6.9899L0.0101021 7.0101C0.010102 7.56239 0.457817 8.0101 1.0101 8.0101L4.06096 8.0101C4.61325 8.0101 5.06097 8.45782 5.06097 9.0101L5.06097 12.061C5.06097 12.6132 5.50868 13.061 6.06097 13.061H6.08117C6.63345 13.061 7.08117 12.6133 7.08117 12.061L7.08117 9.0101C7.08117 8.45782 7.52888 8.0101 8.08117 8.0101L11.132 8.0101C11.6843 8.0101 12.132 7.56239 12.132 7.0101V6.9899C12.132 6.43761 11.6843 5.9899 11.132 5.9899L8.08117 5.9899C7.52889 5.9899 7.08117 5.54218 7.08117 4.9899L7.08117 1.93904Z" fill="white"/>
</svg>
